<svg width="32" height="32" viewBox="0 0 32 32" fill="none" xmlns="http://www.w3.org/2000/svg">
<path fill-rule="evenodd" clip-rule="evenodd" d="M28.4405 20.2408C28.0807 21.4892 27.492 22.6607 26.7042 23.6963H18.5002L18.4221 24.206C18.4221 24.4133 18.3613 24.6206 18.344 24.8193C18.3266 25.018 18.344 25.234 18.344 25.4327C18.3403 26.4551 18.5502 27.4671 18.9604 28.4044C18.0732 28.5719 17.1721 28.6558 16.2691 28.655C14.0964 28.6991 11.948 28.1945 10.0245 27.1884C8.10097 26.1822 6.46508 24.7074 5.26967 22.9015C4.96838 22.8302 4.67688 22.7229 4.40152 22.5819C3.0993 21.934 2.8041 18.4525 2.1009 17.0962C1.50607 16.1527 0.800847 15.2827 0 14.5046L3.74172 14.1763L6.52849 15.9473L6.71077 15.7486C6.70649 15.6853 6.70649 15.6218 6.71077 15.5585L5.92078 9.0103C5.33044 4.09481 9.99239 0 14.9756 0H17.7363C22.7108 0 27.3814 4.09481 26.791 9.0103L26.001 15.5585C26.001 15.6622 26.001 15.7572 26.001 15.8522C27.17 17.0922 28.0268 18.5902 28.5013 20.2235L28.4405 20.2408ZM31.9131 25.0094C31.9686 25.3464 31.9976 25.6872 31.9999 26.0288C31.9397 27.6326 31.2571 29.1508 30.0956 30.2644C28.934 31.3779 27.3839 32 25.771 32C24.1581 32 22.608 31.3779 21.4464 30.2644C20.2848 29.1508 19.6022 27.6326 19.542 26.0288C19.5443 25.6872 19.5733 25.3464 19.6288 25.0094H31.9131ZM16.9636 11.1873C20.4362 11.4983 23.2577 11.8179 23.2577 12.5436C23.2577 13.2692 20.1237 13.9171 16.2517 13.9171C12.3798 13.9171 9.23711 13.2779 9.23711 12.5436C9.23711 11.8093 12.0586 11.4983 15.5312 11.1873C15.7482 11.1873 15.0971 9.31265 15.0971 8.88071C15.0971 7.60216 15.618 6.56551 16.2517 6.56551C16.8855 6.56551 17.3977 7.60216 17.3977 8.88071C17.3977 9.31265 16.7466 11.17 16.9636 11.1873ZM7.80464 14.686C8.07377 14.47 8.35158 14.2627 8.67279 14.064C9.84479 14.6514 12.7618 15.0661 16.1649 15.0661C19.5681 15.0661 22.6673 14.6169 23.7612 14.0035C24.1258 14.2454 24.4731 14.5046 24.803 14.7724L25.428 9.58909C25.9402 5.26969 21.8687 1.72776 17.5279 1.72776H15.1144C10.7737 1.72776 6.7021 5.2956 7.21431 9.58909L7.83071 14.6687L7.80464 14.686Z" fill="#1B1B1B"/>
<path fill-rule="evenodd" clip-rule="evenodd" d="M31.9131 25.0094C31.9686 25.3464 31.9976 25.6872 31.9999 26.0288C31.9398 27.6326 31.2571 29.1508 30.0956 30.2644C28.934 31.3779 27.3839 32 25.771 32C24.1581 32 22.608 31.3779 21.4464 30.2644C20.2848 29.1508 19.6022 27.6326 19.542 26.0288C19.5444 25.6872 19.5734 25.3464 19.6288 25.0094H31.9131Z" fill="#E07153"/>
</svg>
