<svg width="51" height="49" viewBox="0 0 51 49" fill="none" xmlns="http://www.w3.org/2000/svg">
<path fill-rule="evenodd" clip-rule="evenodd" d="M25.5297 1.73362C25.3072 1.91082 24.8601 2.86447 24.6897 3.52562C24.5134 4.2093 24.4162 5.13939 24.4646 5.67817C24.5335 6.44384 24.6246 6.85055 24.9682 7.92568C25.7132 10.2564 25.9889 11.5264 26.0404 12.8639C26.0677 13.5739 26.0531 13.8891 25.9758 14.2552C25.7113 15.5075 24.9856 16.2288 23.8762 16.342C22.3627 16.4964 21.2172 15.7877 20.6845 14.367C20.5769 14.08 20.4311 13.7954 20.3604 13.7344C20.1681 13.5683 19.7743 13.5889 19.5908 13.7746C19.1688 14.2017 18.8645 16.791 19.0534 18.3468C19.176 19.3566 19.1197 19.277 19.676 19.2272C20.9049 19.1171 22.279 19.4366 24.843 20.4286C27.6579 21.5176 29.706 22.0727 32.1295 22.4034C33.5259 22.594 37.2946 22.5431 38.0179 22.324C38.2321 22.2591 38.5058 20.7351 38.5078 19.5969C38.5102 18.2668 38.2139 17.0037 37.6041 15.7445C37.0805 14.663 36.803 14.4097 36.3513 14.6009C36.1397 14.6905 36.0726 14.8059 35.8838 15.4056C35.7305 15.8923 35.4021 16.4665 35.022 16.9125C34.4239 17.6143 33.4667 17.8376 32.6611 17.4632C31.9811 17.1471 31.6852 16.746 31.5583 15.9677C31.4605 15.3685 31.548 14.5619 31.9067 12.757C32.5763 9.3872 32.626 8.71985 32.2847 7.6863C32.0909 7.09916 31.8739 6.84941 31.5577 6.84941C31.2785 6.84941 31.1616 6.93855 30.9552 7.30878C30.7203 7.73011 30.339 8.08199 29.8854 8.29598C29.5886 8.43602 29.4462 8.46192 28.971 8.46249C28.4706 8.46312 28.363 8.44147 28.0015 8.26756C26.6904 7.6368 26.24 6.18231 26.3968 3.08637L26.4544 1.95071L26.2575 1.77268C26.0184 1.55648 25.7691 1.54305 25.5297 1.73362ZM10.4741 18.9456C10.0514 19.1716 9.87831 19.7318 10.0911 20.1857C10.2772 20.5827 11.7212 21.8154 12.8466 22.5378C13.606 23.0254 14.6821 23.5873 14.735 23.5238C14.7604 23.4933 14.8321 23.2974 14.8942 23.0885C14.9562 22.8796 15.1046 22.4998 15.2238 22.2444C15.343 21.9891 15.4312 21.7729 15.4197 21.7639C15.4082 21.7549 15.1176 21.5991 14.7739 21.4177C13.8996 20.9561 13.0463 20.361 12.2354 19.6471C11.8539 19.3114 11.4667 18.9869 11.375 18.9262C11.1563 18.7813 10.7658 18.7897 10.4741 18.9456ZM19.4427 20.4654C18.2745 20.6205 17.28 21.2364 16.6602 22.1884C16.007 23.1918 15.7766 24.0412 15.8236 25.2727C15.8725 26.5498 16.1866 27.2936 17.0562 28.1913C18.4175 29.5966 20.6919 30.4358 24.1863 30.8222C25.3917 30.9555 28.1186 30.9727 29.0335 30.8528C33.6937 30.2421 37.6834 28.255 40.8264 24.9791C41.9851 23.7714 42.1274 23.5305 41.9207 23.1259C41.7445 22.7809 41.5606 22.7656 40.5933 23.0159C39.5419 23.2879 38.3368 23.5233 37.4145 23.6369C36.3324 23.7702 33.0058 23.7515 31.9419 23.6064C29.3909 23.2582 27.0035 22.5962 24.038 21.4147C22.0794 20.6344 20.5493 20.3183 19.4427 20.4654ZM18.0512 23.7186C18.1479 23.7692 18.2634 23.8998 18.308 24.0088C18.3768 24.1769 18.3734 24.2578 18.2856 24.5397C17.9707 25.5511 18.3892 26.4155 19.5182 27.0855C20.7582 27.8213 22.9023 28.3345 25.3372 28.4781C25.719 28.5006 26.1079 28.5581 26.2015 28.6059C26.5442 28.7809 26.6024 29.1922 26.3308 29.5189L26.1613 29.7229L25.3145 29.6831C23.058 29.5772 20.8861 29.0965 19.4016 28.3747C18.297 27.8375 17.627 27.2157 17.2188 26.349C17.0354 25.9596 17.0249 25.8965 17.0249 25.1777C17.0249 24.494 17.0406 24.3864 17.1813 24.1015C17.4014 23.6559 17.6893 23.5292 18.0512 23.7186Z" fill="#1B1B1B"/>
<path fill-rule="evenodd" clip-rule="evenodd" d="M10.4741 18.9457C10.0514 19.1717 9.87831 19.7319 10.0911 20.1858C10.2772 20.5829 11.7212 21.8155 12.8466 22.538C13.606 23.0255 14.6821 23.5874 14.735 23.524C14.7604 23.4934 14.8321 23.2976 14.8942 23.0886C14.9562 22.8797 15.1046 22.4999 15.2238 22.2446C15.343 21.9892 15.4312 21.773 15.4197 21.7641C15.4082 21.7551 15.1176 21.5993 14.7739 21.4178C13.8996 20.9562 13.0463 20.3611 12.2354 19.6473C11.8539 19.3115 11.4667 18.9871 11.375 18.9263C11.1563 18.7814 10.7658 18.7899 10.4741 18.9457ZM19.4427 20.4655C18.2745 20.6207 17.28 21.2365 16.6602 22.1885C16.007 23.192 15.7766 24.0413 15.8236 25.2728C15.8725 26.5499 16.1866 27.2938 17.0562 28.1914C18.4175 29.5967 20.6919 30.436 24.1863 30.8224C25.3917 30.9556 28.1186 30.9729 29.0335 30.8529C33.6937 30.2423 37.6834 28.2551 40.8264 24.9793C41.9851 23.7715 42.1274 23.5306 41.9207 23.126C41.7445 22.781 41.5606 22.7657 40.5933 23.016C39.5419 23.2881 38.3368 23.5234 37.4145 23.637C36.3324 23.7703 33.0058 23.7517 31.9419 23.6065C29.3909 23.2583 27.0035 22.5963 24.038 21.4148C22.0794 20.6345 20.5493 20.3184 19.4427 20.4655ZM18.0512 23.7188C18.1479 23.7693 18.2634 23.8999 18.308 24.009C18.3768 24.177 18.3734 24.2579 18.2856 24.5398C17.9707 25.5512 18.3892 26.4156 19.5182 27.0856C20.7582 27.8215 22.9023 28.3346 25.3372 28.4782C25.719 28.5007 26.1079 28.5583 26.2015 28.6061C26.5442 28.781 26.6024 29.1923 26.3308 29.519L26.1613 29.723L25.3145 29.6833C23.058 29.5773 20.8861 29.0967 19.4016 28.3748C18.297 27.8376 17.627 27.2158 17.2188 26.3491C17.0354 25.9598 17.0249 25.8966 17.0249 25.1779C17.0249 24.4941 17.0406 24.3865 17.1813 24.1016C17.4014 23.6561 17.6893 23.5293 18.0512 23.7188Z" fill="#E07153"/>
<path d="M11.332 44.98C10.62 45.74 9.656 46.12 8.44 46.12C7.224 46.12 6.26 45.74 5.548 44.98C4.836 44.22 4.48 43.16 4.48 41.8C4.48 40.44 4.836 39.38 5.548 38.62C6.26 37.86 7.224 37.48 8.44 37.48C9.656 37.48 10.62 37.86 11.332 38.62C12.044 39.38 12.4 40.44 12.4 41.8C12.4 43.16 12.044 44.22 11.332 44.98ZM6.868 43.804C7.26 44.268 7.784 44.5 8.44 44.5C9.096 44.5 9.62 44.268 10.012 43.804C10.404 43.34 10.6 42.672 10.6 41.8C10.6 40.928 10.404 40.26 10.012 39.796C9.62 39.332 9.096 39.1 8.44 39.1C7.784 39.1 7.26 39.332 6.868 39.796C6.476 40.26 6.28 40.928 6.28 41.8C6.28 42.672 6.476 43.34 6.868 43.804ZM16.4228 46.12C15.4548 46.12 14.6908 45.832 14.1308 45.256C13.5788 44.672 13.3028 43.86 13.3028 42.82C13.3028 41.78 13.5788 40.972 14.1308 40.396C14.6908 39.812 15.4548 39.52 16.4228 39.52C17.2628 39.52 17.9188 39.732 18.3908 40.156C18.8708 40.58 19.1948 41.128 19.3628 41.8H17.6828C17.4268 41.28 17.0068 41.02 16.4228 41.02C15.9908 41.02 15.6428 41.176 15.3788 41.488C15.1148 41.792 14.9828 42.236 14.9828 42.82C14.9828 43.404 15.1148 43.852 15.3788 44.164C15.6428 44.468 15.9908 44.62 16.4228 44.62C17.0068 44.62 17.4268 44.36 17.6828 43.84H19.3628C19.1948 44.512 18.8708 45.06 18.3908 45.484C17.9188 45.908 17.2628 46.12 16.4228 46.12ZM21.5922 46V41.2H19.6122V39.64H25.2522V41.2H23.2722V46H21.5922ZM26.095 48.4V39.64H27.535L27.715 40.36H27.775C28.255 39.8 28.855 39.52 29.575 39.52C30.407 39.52 31.075 39.808 31.579 40.384C32.083 40.952 32.335 41.764 32.335 42.82C32.335 43.876 32.083 44.692 31.579 45.268C31.075 45.836 30.407 46.12 29.575 46.12C28.831 46.12 28.251 45.86 27.835 45.34H27.775V48.4H26.095ZM28.183 44.176C28.455 44.472 28.799 44.62 29.215 44.62C29.631 44.62 29.975 44.472 30.247 44.176C30.519 43.872 30.655 43.42 30.655 42.82C30.655 42.22 30.519 41.772 30.247 41.476C29.975 41.172 29.631 41.02 29.215 41.02C28.799 41.02 28.455 41.172 28.183 41.476C27.911 41.772 27.775 42.22 27.775 42.82C27.775 43.42 27.911 43.872 28.183 44.176ZM38.5778 45.256C38.0258 45.832 37.2658 46.12 36.2978 46.12C35.3298 46.12 34.5658 45.832 34.0058 45.256C33.4538 44.672 33.1778 43.86 33.1778 42.82C33.1778 41.78 33.4538 40.972 34.0058 40.396C34.5658 39.812 35.3298 39.52 36.2978 39.52C37.2658 39.52 38.0258 39.812 38.5778 40.396C39.1378 40.972 39.4178 41.78 39.4178 42.82C39.4178 43.86 39.1378 44.672 38.5778 45.256ZM35.2658 44.176C35.5378 44.472 35.8818 44.62 36.2978 44.62C36.7138 44.62 37.0578 44.472 37.3298 44.176C37.6018 43.872 37.7378 43.42 37.7378 42.82C37.7378 42.22 37.6018 41.772 37.3298 41.476C37.0578 41.172 36.7138 41.02 36.2978 41.02C35.8818 41.02 35.5378 41.172 35.2658 41.476C34.9938 41.772 34.8578 42.22 34.8578 42.82C34.8578 43.42 34.9938 43.872 35.2658 44.176ZM43.3759 46.12C42.4079 46.12 41.6439 45.832 41.0839 45.256C40.5319 44.672 40.2559 43.86 40.2559 42.82C40.2559 41.78 40.5319 40.972 41.0839 40.396C41.6439 39.812 42.4079 39.52 43.3759 39.52C44.2959 39.52 45.0359 39.816 45.5959 40.408C46.1559 41 46.4359 41.764 46.4359 42.7L46.3759 43.36H41.9959C42.1399 44.2 42.5999 44.62 43.3759 44.62C43.6799 44.62 43.9119 44.572 44.0719 44.476C44.2319 44.38 44.3799 44.228 44.5159 44.02H46.3159C46.1479 44.628 45.8239 45.132 45.3439 45.532C44.8639 45.924 44.2079 46.12 43.3759 46.12ZM41.9959 42.1H44.6959C44.6319 41.796 44.4839 41.54 44.2519 41.332C44.0279 41.124 43.7359 41.02 43.3759 41.02C42.6719 41.02 42.2119 41.38 41.9959 42.1Z" fill="#1B1B1B"/>
</svg>
