<svg width="166" height="132" viewBox="0 0 166 132" fill="none" xmlns="http://www.w3.org/2000/svg">
<circle cx="82" cy="96" r="36" fill="#E07153"/>
<path fill-rule="evenodd" clip-rule="evenodd" d="M107.885 60.8231C107.707 60.8439 107.168 60.9037 106.686 60.956C103.645 61.286 100.277 62.4273 97.5588 64.0489C94.0997 66.1127 91.2883 68.9242 89.2245 72.3832C87.6161 75.0789 86.5478 78.2115 86.1119 81.5108C85.9627 82.6404 85.9627 86.0969 86.1119 87.2264C86.5478 90.5257 87.6161 93.6584 89.2245 96.354C91.2883 99.8131 94.0997 102.625 97.5588 104.688C100.254 106.297 103.387 107.365 106.686 107.801C107.816 107.95 111.272 107.95 112.402 107.801C118.142 107.042 123.008 104.521 126.979 100.248C129.176 97.8835 130.895 94.9428 131.95 91.7436C132.781 89.2218 133.092 87.2138 133.092 84.3686C133.092 82.2638 133.003 81.3339 132.626 79.4827C131.33 73.1355 127.252 67.4633 121.53 64.0489C118.861 62.457 115.68 61.3661 112.494 60.9511C111.686 60.8458 108.456 60.7561 107.885 60.8231ZM110.743 69.1207C110.743 70.1315 110.611 70.5166 110.155 70.842C109.761 71.1227 108.933 71.1303 108.56 70.8566C108.113 70.5289 107.977 70.1354 107.977 69.1688L107.977 68.3042L107.341 68.3669C105.842 68.5146 104.155 69.0401 102.4 69.9055C100.807 70.6912 99.6653 71.4949 98.357 72.753C95.7136 75.2947 94.0551 78.5055 93.5594 82.0409L93.4398 82.8936H94.3044C95.2886 82.8936 95.6566 83.0095 96.0113 83.431C96.3568 83.8417 96.42 84.3479 96.1903 84.867C95.9032 85.5162 95.591 85.6585 94.4539 85.6589C93.9372 85.6591 93.4959 85.6903 93.4731 85.7284C93.4504 85.7665 93.4845 86.1709 93.5489 86.6272C94.2893 91.8741 97.5989 96.47 102.307 98.7902C104.08 99.6636 105.762 100.195 107.286 100.363C107.59 100.397 107.911 100.444 108 100.469C108.147 100.51 108.161 100.418 108.161 99.443C108.161 98.3072 108.231 98.0481 108.637 97.6755C109.286 97.0791 110.371 97.3038 110.797 98.123C110.887 98.2951 110.927 98.7028 110.927 99.443C110.927 100.419 110.941 100.51 111.088 100.468C111.177 100.443 111.515 100.394 111.84 100.359C112.753 100.261 114.38 99.8289 115.47 99.3948C117.465 98.5999 119.106 97.5414 120.683 96.0304C123.512 93.3208 125.162 89.9752 125.628 86.005L125.69 85.4749H124.591C123.6 85.4749 123.461 85.4542 123.181 85.2652C122.778 84.9937 122.494 84.3365 122.58 83.8756C122.657 83.4639 123.037 83.0008 123.434 82.835C123.621 82.7568 124.089 82.7093 124.672 82.7093H125.609L125.546 82.1331C125.264 79.5442 123.885 76.3813 122.079 74.1819C119.469 71.0045 115.834 68.9492 111.803 68.3713C111.296 68.2987 110.85 68.2384 110.812 68.2375C110.774 68.2366 110.743 68.634 110.743 69.1207ZM101.956 74.9697C102.098 75.0228 103.864 76.713 105.88 78.7258L109.544 82.3853L111.457 80.4765C113.511 78.4265 113.796 78.2231 114.452 78.3339C114.953 78.4188 115.494 78.9622 115.58 79.4667C115.697 80.1584 115.486 80.4321 112.759 83.1391C110.593 85.2883 110.187 85.6524 109.89 85.7077C109.043 85.8652 109.209 85.9997 104.579 81.3886C102.143 78.9616 100.25 77.0044 100.177 76.8353C99.671 75.6657 100.759 74.5249 101.956 74.9697Z" fill="white"/>
<path fill-rule="evenodd" clip-rule="evenodd" d="M107.885 60.8231C107.707 60.8439 107.168 60.9037 106.686 60.956C103.645 61.286 100.277 62.4273 97.5588 64.0489C94.0997 66.1127 91.2883 68.9242 89.2245 72.3832C87.6161 75.0789 86.5478 78.2115 86.1119 81.5108C85.9627 82.6404 85.9627 86.0969 86.1119 87.2264C86.5478 90.5257 87.6161 93.6584 89.2245 96.354C91.2883 99.8131 94.0997 102.625 97.5588 104.688C100.254 106.297 103.387 107.365 106.686 107.801C107.816 107.95 111.272 107.95 112.402 107.801C118.142 107.042 123.008 104.521 126.979 100.248C129.176 97.8835 130.895 94.9428 131.95 91.7436C132.781 89.2218 133.092 87.2138 133.092 84.3686C133.092 82.2638 133.003 81.3339 132.626 79.4827C131.33 73.1355 127.252 67.4633 121.53 64.0489C118.861 62.457 115.68 61.3661 112.494 60.9511C111.686 60.8458 108.456 60.7561 107.885 60.8231ZM112.31 65.6169C115.452 66.0759 118.428 67.3435 121.099 69.3616C122.065 70.0911 123.822 71.8481 124.551 72.8138C127.185 76.3005 128.478 80.1054 128.478 84.3686C128.478 86.769 128.122 88.8004 127.342 90.8541C126.278 93.6518 124.969 95.6895 122.917 97.7415C119.971 100.688 116.404 102.494 112.264 103.136C110.888 103.35 108.2 103.35 106.825 103.136C103.56 102.63 100.667 101.399 97.9893 99.3757C97.0236 98.6462 95.2666 96.8892 94.5371 95.9235C92.5143 93.2456 91.283 90.353 90.7764 87.0882C90.5628 85.7113 90.5629 83.0242 90.7768 81.6491C91.2814 78.4041 92.5296 75.4714 94.5371 72.8138C95.2666 71.8481 97.0236 70.0911 97.9893 69.3616C102.19 66.1881 107.219 64.8732 112.31 65.6169ZM110.743 69.1207C110.743 70.1315 110.611 70.5166 110.155 70.842C109.761 71.1227 108.933 71.1303 108.56 70.8566C108.113 70.5289 107.977 70.1354 107.977 69.1688L107.977 68.3042L107.341 68.3669C105.842 68.5146 104.155 69.0401 102.4 69.9055C100.807 70.6912 99.6653 71.4949 98.357 72.753C95.7136 75.2947 94.0551 78.5055 93.5594 82.0409L93.4398 82.8936H94.3044C95.2886 82.8936 95.6566 83.0095 96.0113 83.431C96.3568 83.8417 96.42 84.3479 96.1903 84.867C95.9032 85.5162 95.591 85.6585 94.4539 85.6589C93.9372 85.6591 93.4959 85.6903 93.4731 85.7284C93.4504 85.7665 93.4845 86.1709 93.5489 86.6272C94.2893 91.8741 97.5989 96.47 102.307 98.7902C104.08 99.6636 105.762 100.195 107.286 100.363C107.59 100.397 107.911 100.444 108 100.469C108.147 100.51 108.161 100.418 108.161 99.443C108.161 98.3072 108.231 98.0481 108.637 97.6755C109.286 97.0791 110.371 97.3038 110.797 98.123C110.887 98.2951 110.927 98.7028 110.927 99.443C110.927 100.419 110.941 100.51 111.088 100.468C111.177 100.443 111.515 100.394 111.84 100.359C112.753 100.261 114.38 99.8289 115.47 99.3948C117.465 98.5999 119.106 97.5414 120.683 96.0304C123.512 93.3208 125.162 89.9752 125.628 86.005L125.69 85.4749H124.591C123.6 85.4749 123.461 85.4542 123.181 85.2653C122.778 84.9937 122.494 84.3365 122.58 83.8756C122.657 83.4639 123.037 83.0008 123.434 82.835C123.621 82.7568 124.089 82.7093 124.672 82.7093H125.609L125.546 82.1331C125.264 79.5442 123.885 76.3813 122.079 74.1819C119.469 71.0045 115.834 68.9492 111.803 68.3713C111.296 68.2987 110.85 68.2384 110.812 68.2375C110.774 68.2366 110.743 68.634 110.743 69.1207ZM101.956 74.9697C102.098 75.0228 103.864 76.713 105.88 78.7258L109.544 82.3853L111.457 80.4765C113.511 78.4265 113.796 78.2231 114.452 78.3339C114.953 78.4188 115.494 78.9622 115.58 79.4667C115.697 80.1584 115.486 80.4321 112.759 83.1391C110.593 85.2883 110.187 85.6524 109.89 85.7077C109.043 85.8652 109.209 85.9997 104.579 81.3886C102.143 78.9616 100.25 77.0044 100.177 76.8353C99.671 75.6657 100.759 74.5249 101.956 74.9697Z" fill="#1B1B1B"/>
<path d="M25.6071 64.0269L19.4782 57.491L20.9954 56.0682C20.72 54.7765 20.1425 53.4902 19.263 52.2092C18.3845 50.8981 17.1645 49.41 15.6031 47.7449L9.91195 41.6758L21.3497 30.9502L33.7171 44.1387L35.7012 42.2781L41.8301 48.814L38.5622 51.8785L35.3882 48.4938L25.7011 57.5778L28.875 60.9624L25.6071 64.0269ZM24.3801 52.8943L30.2157 47.4221L20.8034 37.3848L16.3683 41.5437L19.1045 44.4615C22.2857 47.854 24.0442 50.6649 24.3801 52.8943Z" fill="#1B1B1B"/>
<path d="M50.5238 36.9037C49.9733 38.9587 48.5668 40.6076 46.3044 41.8505C44.042 43.0935 41.8866 43.4013 39.8382 42.7741C37.7982 42.118 36.1105 40.5746 34.7752 38.1439C33.4398 35.7132 33.0474 33.4704 33.598 31.4154C34.1569 29.3314 35.5676 27.668 37.83 26.4251C40.0924 25.1822 42.2436 24.8888 44.2836 25.545C46.332 26.1721 48.0239 27.7011 49.3592 30.1317C50.6946 32.5624 51.0828 34.8197 50.5238 36.9037ZM41.3963 38.6321C42.4121 38.9747 43.4061 38.8789 44.3784 38.3448C45.3507 37.8106 45.9646 37.023 46.2203 35.982C46.4657 34.9222 46.2032 33.6912 45.4328 32.2889C44.6624 30.8865 43.7693 30.0141 42.7535 29.6716C41.7274 29.3103 40.7283 29.3967 39.756 29.9309C38.7837 30.465 38.1749 31.262 37.9295 32.3217C37.6739 33.3628 37.9313 34.5845 38.7017 35.9868C39.4721 37.3891 40.3703 38.2709 41.3963 38.6321Z" fill="#1B1B1B"/>
<path d="M61.216 35.6519C58.7374 36.3728 56.5666 36.2043 54.7038 35.1465C52.8554 34.0622 51.544 32.1886 50.7695 29.5256C49.995 26.8626 50.0999 24.5881 51.0844 22.7021C52.0834 20.7897 53.8222 19.4731 56.3009 18.7522C58.4517 18.1266 60.2894 18.1809 61.8137 18.9151C63.3585 19.6433 64.5963 20.8052 65.5269 22.4008L61.2251 23.6519C60.1824 22.5111 58.9133 22.1581 57.4179 22.593C56.3118 22.9147 55.5369 23.5734 55.0932 24.5689C54.6436 25.5439 54.6363 26.7791 55.0712 28.2744C55.5061 29.7698 56.1778 30.8186 57.0861 31.4209C57.9885 32.0027 58.9928 32.1328 60.0989 31.8111C61.5943 31.3762 62.4761 30.3976 62.7444 28.8755L67.0461 27.6244C67.1164 29.4702 66.6949 31.1146 65.7816 32.5578C64.8887 33.995 63.3669 35.0264 61.216 35.6519Z" fill="#1B1B1B"/>
<path d="M73.5405 32.8088L72.4315 20.057L67.1713 20.5144L66.8109 16.3701L81.7944 15.067L82.1548 19.2114L76.8946 19.6688L78.0036 32.4207L73.5405 32.8088Z" fill="#1B1B1B"/>
<path d="M89.3193 29.3326C90.3586 29.4447 91.2273 29.2487 91.9253 28.7446C92.6469 28.2216 93.0591 27.4829 93.1621 26.5284L93.2135 26.0512L89.3957 25.6395C88.6533 25.5595 88.0729 25.6685 87.6545 25.9667C87.2597 26.246 87.0348 26.6402 86.9799 27.1492C86.9181 27.7219 87.0799 28.2114 87.4652 28.6177C87.8528 29.0028 88.4709 29.2411 89.3193 29.3326ZM87.8112 32.8713C86.0083 32.6769 84.6292 32.0347 83.6739 30.9447C82.7186 29.8546 82.3244 28.5354 82.4914 26.9871C82.6606 25.4175 83.3588 24.2161 84.5859 23.3829C85.8364 22.5307 87.501 22.2167 89.5797 22.4408L93.5566 22.8697L93.6424 22.0743C93.727 21.2895 93.5365 20.6681 93.0709 20.2103C92.6053 19.7524 91.9271 19.4754 91.0363 19.3793C90.4212 19.313 89.8654 19.3925 89.3691 19.618C88.8939 19.8457 88.5498 20.1519 88.3366 20.5366L83.8825 20.0563C84.4054 18.5892 85.3146 17.4213 86.6098 16.5525C87.9263 15.686 89.5921 15.3613 91.607 15.5786C93.8553 15.8211 95.5457 16.5612 96.6782 17.7991C97.8319 19.0393 98.299 20.6775 98.0794 22.7137L96.9129 33.5309L93.0951 33.1193L92.8237 31.1589L92.6646 31.1417C91.5076 32.5189 89.8898 33.0955 87.8112 32.8713Z" fill="#1B1B1B"/>
<path d="M103.55 31.6598L106.897 32.7492C107.486 32.9407 107.978 32.9439 108.375 32.759C108.792 32.5806 109.08 32.248 109.238 31.7611C109.588 30.686 109.154 29.9503 107.937 29.5542L104.59 28.4648L103.55 31.6598ZM98.1513 33.7726L103.4 17.6453L111.768 20.3688C113.35 20.8838 114.449 21.6788 115.064 22.7539C115.706 23.8152 115.802 25.0357 115.353 26.4151C114.825 28.038 113.735 28.9733 112.084 29.2212C113.469 30.4797 113.901 31.9102 113.379 33.5128C112.884 35.0342 112.048 36.0521 110.871 36.5664C109.714 37.0874 108.264 37.0639 106.519 36.4961L98.1513 33.7726ZM105.63 25.2697L108.825 26.3096C109.941 26.6728 110.647 26.3979 110.944 25.485C111.241 24.5722 110.832 23.9342 109.716 23.571L106.521 22.5311L105.63 25.2697Z" fill="#1B1B1B"/>
<path d="M112.988 38.6369L121.648 24.0544L125.5 26.3418L120.271 35.1464L120.409 35.2281L130.865 29.528L135.13 32.0605L126.47 46.6431L122.618 44.3556L127.928 35.4135L127.791 35.3318L117.253 41.1695L112.988 38.6369Z" fill="#1B1B1B"/>
<path d="M127.692 47.1761L139.752 35.2518L144.14 39.6891L139.559 49.393L139.671 49.5068L149.427 45.0366L153.814 49.4739L141.754 61.3982L138.604 58.2125L146.113 50.7879L146.001 50.6741L135.791 55.368L133.654 53.2063L138.463 43.051L138.351 42.9373L130.842 50.3618L127.692 47.1761Z" fill="#1B1B1B"/>
</svg>
