<svg width="29" height="32" viewBox="0 0 29 32" fill="none" xmlns="http://www.w3.org/2000/svg">
<path fill-rule="evenodd" clip-rule="evenodd" d="M29 18.652C28.9169 18.5388 28.8026 18.4534 28.6714 18.4064C26.1986 17.6083 19.3509 15.3281 17.0683 16.2314C16.5821 16.5099 16.1319 16.8487 15.7282 17.24L0.415847 31.1668C0.35307 31.2389 0.31297 31.3283 0.300646 31.4236C0.288321 31.5189 0.30432 31.6158 0.346663 31.7018C0.386182 31.7877 0.44822 31.8609 0.525981 31.9135C0.603743 31.9661 0.694248 31.996 0.787624 32L21.1926 29.369C21.7471 29.3187 22.2932 29.1979 22.818 29.0094C25.239 27.7027 27.876 21.6513 28.9568 19.0817C28.999 18.9506 28.999 18.8093 28.9568 18.6783L29 18.652ZM11.7077 7.15441C9.9266 6.14585 8.05903 6.09322 7.54026 7.04039C7.02149 7.98756 8.05041 9.56617 9.83151 10.5484C11.6126 11.5307 13.4715 11.6008 13.999 10.6624C14.5264 9.72403 13.4888 8.12788 11.7077 7.15441ZM15.9097 0.0331224C15.7778 -0.0110408 15.6353 -0.0110408 15.5034 0.0331224C13.0479 0.910128 5.99263 3.4622 4.70435 5.55825C4.47491 6.07573 4.31218 6.62104 4.22017 7.18072L0.000848494 27.5887C-0.00461871 27.6839 0.0164163 27.7788 0.0615889 27.8625C0.106762 27.9462 0.17426 28.0153 0.256317 28.0619C0.338375 28.1086 0.431709 28.1309 0.525665 28.1263C0.619621 28.1217 0.710379 28.0904 0.787624 28.0359L15.685 13.653C16.1036 13.279 16.4727 12.8516 16.783 12.3814C17.9762 9.88189 16.783 3.10264 16.1173 0.383919C16.0904 0.246096 16.0169 0.122075 15.9097 0.0331224ZM13.1084 4.97945C10.1687 3.33068 6.5114 4.32168 5.62084 5.95291C4.73029 7.58414 6.37307 10.2415 9.30411 11.899C12.2352 13.5566 15.3564 13.5741 16.221 11.9516C17.0856 10.3292 16.0308 6.63699 13.0997 4.97945H13.1084ZM21.9966 21.8179C21.132 19.9324 19.6708 18.7747 18.7025 19.1869C17.7341 19.5991 17.6303 21.5285 18.4863 23.4141C19.3423 25.2997 20.8035 26.4573 21.7805 26.0013C22.7575 25.5452 22.844 23.6597 21.9966 21.7829V21.8179ZM24.1754 20.7831C22.7748 17.6873 19.2472 16.2928 17.5785 17.0646C15.9098 17.8364 15.6763 20.976 17.077 24.0806C18.4777 27.1852 20.9591 29.062 22.6278 28.2815C24.2965 27.5009 25.5675 23.8965 24.1754 20.7919V20.7831Z" fill="#1B1B1B"/>
<path fill-rule="evenodd" clip-rule="evenodd" d="M11.7077 7.15441C9.9266 6.14585 8.05903 6.09322 7.54026 7.04039C7.02149 7.98756 8.05041 9.56617 9.83151 10.5484C11.6126 11.5307 13.4715 11.6008 13.999 10.6624C14.5264 9.72403 13.4888 8.12788 11.7077 7.15441ZM21.9966 21.8179C21.132 19.9324 19.6708 18.7747 18.7025 19.1869C17.7341 19.5991 17.6303 21.5285 18.4863 23.4141C19.3423 25.2997 20.8035 26.4573 21.7805 26.0013C22.7575 25.5452 22.844 23.6597 21.9966 21.7829V21.8179Z" fill="#E07153"/>
</svg>
