<svg width="186" height="122" viewBox="0 0 186 122" fill="none" xmlns="http://www.w3.org/2000/svg">
<circle cx="94" cy="86" r="36" fill="#E07153"/>
<path fill-rule="evenodd" clip-rule="evenodd" d="M103.625 73.9831V75.3893H106.438H109.25V73.9831V72.5768H106.438H103.625V73.9831ZM129.031 74.0768V75.5768H129.255C129.595 75.5768 131.023 76.0116 131.719 76.3274C132.647 76.7481 133.776 77.5377 134.55 78.3079C136.514 80.2624 137.467 82.6396 137.468 85.5846L137.469 86.6393H138.875H140.281V88.0456V89.4518H127.625H114.969V88.0456V86.6393H116.362H117.755L117.807 85.1628C117.879 83.124 118.238 81.8242 119.163 80.253C120.516 77.9551 123.065 76.1324 125.597 75.652L126.219 75.5341V74.0555V72.5768H127.625H129.031V74.0768ZM100.812 79.6081V81.0143H103.625H106.438V79.6081V78.2018H103.625H100.812V79.6081ZM126.173 78.3575C124.775 78.6569 123.594 79.3302 122.559 80.4176C121.167 81.88 120.594 83.3929 120.594 85.6041V86.6393H127.625H134.656V85.6041C134.656 83.8949 134.31 82.6476 133.485 81.3893C132.738 80.2482 131.493 79.2152 130.264 78.716C129.042 78.2191 127.464 78.0809 126.173 78.3575ZM98 85.2331V86.6393H100.812H103.625V85.2331V83.8268H100.812H98V85.2331Z" fill="white"/>
<rect x="117" y="61.33" width="4" height="7" fill="white"/>
<path fill-rule="evenodd" clip-rule="evenodd" d="M126.219 50.0482C122.994 50.3936 120.349 51.846 118.424 54.3282L117.781 55.1577V58.2423V61.3268H114.937H112.092L112.032 63.8815C111.939 67.8129 111.675 70.0262 110.702 75.0143C109.384 81.7679 109.252 83.3157 109.251 92.1003L109.25 97.9831H127.625H146L146 92.1003C145.999 83.4566 145.846 81.6229 144.595 75.2532C143.529 69.8274 143.191 66.8575 143.188 62.8971L143.188 61.3268H140.328H137.469V58.2423V55.1577L136.827 54.3282C134.953 51.9045 132.392 50.4677 129.266 50.0865C128.47 49.9894 126.946 49.9703 126.219 50.0482ZM129.922 53.0672C131.56 53.4725 132.911 54.2223 134.007 55.3342L134.656 55.9923V58.6595V61.3268H136.062H137.469V64.1393V66.9518H136.062H134.656V64.1393V61.3268H127.625H120.594V64.1393V66.9518H119.188H117.781V64.1393V61.3268H119.188H120.594L120.594 58.6784L120.595 56.0299L120.966 55.5972C121.38 55.1141 122.481 54.2501 123.125 53.9026C123.974 53.4444 125.154 53.0541 126.176 52.8933C127.035 52.758 129.051 52.8515 129.922 53.0672ZM103.625 73.9831V75.3893H106.438H109.25V73.9831V72.5768H106.438H103.625V73.9831ZM129.031 74.0768V75.5768H129.255C129.595 75.5768 131.023 76.0116 131.719 76.3274C132.647 76.7481 133.776 77.5377 134.55 78.3079C136.514 80.2624 137.467 82.6396 137.468 85.5846L137.469 86.6393H138.875H140.281V88.0456V89.4518H127.625H114.969V88.0456V86.6393H116.362H117.755L117.807 85.1628C117.879 83.124 118.238 81.8242 119.163 80.253C120.516 77.9551 123.065 76.1324 125.597 75.652L126.219 75.5341V74.0555V72.5768H127.625H129.031V74.0768ZM100.812 79.6081V81.0143H103.625H106.438V79.6081V78.2018H103.625H100.812V79.6081ZM126.173 78.3575C124.775 78.6569 123.594 79.3302 122.559 80.4176C121.167 81.88 120.594 83.3929 120.594 85.6041V86.6393H127.625H134.656V85.6041C134.656 83.8949 134.31 82.6476 133.485 81.3893C132.738 80.2482 131.493 79.2152 130.264 78.716C129.042 78.2191 127.464 78.0809 126.173 78.3575ZM98 85.2331V86.6393H100.812H103.625V85.2331V83.8268H100.812H98V85.2331Z" fill="#1B1B1B"/>
<path d="M26.9175 55.9283L29.2318 52.4715C29.8371 51.5674 30.0873 50.7337 29.9823 49.9702C29.8773 49.2067 29.4525 48.5757 28.708 48.0773C27.9635 47.5788 27.2182 47.4264 26.4723 47.6202C25.7264 47.814 25.0508 48.3629 24.4455 49.267L22.1312 52.7238L26.9175 55.9283ZM27.8368 62.3203L9.22337 49.8582L17.8578 36.9618L21.4475 39.3652L15.4835 48.2731L18.5414 50.3204L21.2119 46.3318C22.4937 44.4173 24.058 43.2695 25.9048 42.8886C27.7457 42.478 29.5703 42.8781 31.3784 44.0887C33.1866 45.2993 34.2604 46.8398 34.5999 48.7101C34.9335 50.5509 34.4594 52.4286 33.1776 54.3431L27.8368 62.3203Z" fill="#1B1B1B"/>
<path d="M43.9784 42.4194C42.0822 44.1709 40.0645 44.989 37.9253 44.8739C35.7873 44.7287 33.7775 43.6374 31.8957 41.6002C30.014 39.5629 29.0927 37.4807 29.1319 35.3536C29.1722 33.1964 30.1405 31.242 32.0367 29.4906C33.8389 27.826 35.8241 27.0669 37.9922 27.2133C40.1603 27.3598 42.0912 28.3497 43.7847 30.1833L44.8614 31.5847L36.2813 39.5097C38.0832 40.8946 39.7443 40.8851 41.2644 39.481C41.8599 38.931 42.2275 38.4172 42.3673 37.9396C42.507 37.4621 42.5219 36.8965 42.4119 36.243L45.938 32.9862C46.709 34.4812 46.9862 36.0547 46.7697 37.7068C46.5387 39.3431 45.6082 40.914 43.9784 42.4194ZM34.0015 37.0415L39.2906 32.1562C38.6152 31.6765 37.8621 31.4428 37.0313 31.4551C36.2161 31.453 35.4559 31.7776 34.7507 32.4289C33.3716 33.7027 33.1219 35.2402 34.0015 37.0415Z" fill="#1B1B1B"/>
<path d="M56.9228 32.8305C54.6912 34.1278 52.5438 34.4877 50.4809 33.9103C48.4256 33.3037 46.7011 31.8016 45.3073 29.4039C43.9135 27.0063 43.4669 24.7736 43.9676 22.7059C44.476 20.609 45.846 18.9119 48.0776 17.6146C50.0142 16.4889 51.8107 16.0985 53.4671 16.4434C55.1419 16.7776 56.6233 17.6068 57.9112 18.9309L54.0381 21.1824C52.751 20.3267 51.4343 20.2901 50.0879 21.0728C49.092 21.6517 48.4987 22.4778 48.3082 23.5509C48.107 24.6055 48.3977 25.8061 49.1804 27.1524C49.9631 28.4988 50.8678 29.3547 51.8946 29.7202C52.9106 30.0673 53.9166 29.9513 54.9126 29.3724C56.2589 28.5897 56.8788 27.4274 56.7721 25.8855L60.6452 23.634C61.1585 25.4084 61.1459 27.106 60.6076 28.7268C60.0876 30.3368 58.8594 31.7048 56.9228 32.8305Z" fill="#1B1B1B"/>
<path d="M64.4037 28.2281L59.2749 12.0622L73.6107 7.514L78.7395 23.6799L74.4693 25.0347L70.5985 12.834L64.8032 14.6726L68.674 26.8733L64.4037 28.2281Z" fill="#1B1B1B"/>
<path d="M78.5594 23.8169L78.1712 19.3538L78.6494 19.3122C79.6483 19.2253 80.2595 18.7439 80.4832 17.8679C80.7049 16.9706 80.7104 15.3106 80.4997 12.8877L79.9314 6.35237L93.3208 5.18791L94.7903 22.0841L90.3271 22.4723L89.2181 9.72042L84.7549 10.1086L85.0183 13.1371C85.1255 14.3698 85.1667 15.4584 85.1417 16.4027C85.138 17.3453 85.0369 18.2749 84.8382 19.1915C84.6608 20.1063 84.3739 20.8701 83.9775 21.4827C83.5792 22.0741 83.0123 22.5731 82.2768 22.9797C81.5625 23.3844 80.6953 23.6312 79.6751 23.7199L78.5594 23.8169Z" fill="#1B1B1B"/>
<path d="M103.246 19.5679C104.282 19.7034 105.155 19.527 105.864 19.0388C106.597 18.5322 107.026 17.8029 107.151 16.851L107.213 16.375L103.405 15.8775C102.665 15.7807 102.082 15.8767 101.657 16.1654C101.256 16.4357 101.022 16.8247 100.956 17.3324C100.881 17.9036 101.032 18.3966 101.408 18.8115C101.787 19.2052 102.399 19.4574 103.246 19.5679ZM101.658 23.0718C99.8602 22.8369 98.4959 22.1637 97.5653 21.0525C96.6348 19.9412 96.2704 18.6135 96.4722 17.0693C96.6768 15.5039 97.4018 14.3185 98.6473 13.5131C99.9168 12.6893 101.588 12.4129 103.661 12.6837L107.627 13.202L107.731 12.4087C107.833 11.6261 107.657 11.0006 107.202 10.5323C106.746 10.0641 106.075 9.77192 105.186 9.65582C104.573 9.57566 104.015 9.64268 103.514 9.85686C103.034 10.0738 102.683 10.3722 102.461 10.752L98.019 10.1715C98.5748 8.71662 99.51 7.56946 100.825 6.73003C102.16 5.89337 103.833 5.60633 105.842 5.86892C108.085 6.16192 109.758 6.93995 110.862 8.20301C111.988 9.46884 112.418 11.1171 112.152 13.1479L110.743 23.9361L106.935 23.4386L106.708 21.4726L106.549 21.4519C105.362 22.8027 103.731 23.3427 101.658 23.0718Z" fill="#1B1B1B"/>
<path d="M115.702 25.5476L119.731 13.3983L114.72 11.7362L116.029 7.78769L130.305 12.5221L128.995 16.4706L123.983 14.8085L119.954 26.9578L115.702 25.5476Z" fill="#1B1B1B"/>
<path d="M124.312 28.3309L132.699 13.5896L136.593 15.805L133.428 21.3677L138.713 24.3743L141.877 18.8115L145.771 21.0269L137.385 35.7682L133.491 33.5528L136.655 27.9901L131.371 24.9835L128.206 30.5463L124.312 28.3309Z" fill="#1B1B1B"/>
<path d="M145.424 38.2826C146.201 38.9817 147.02 39.3311 147.881 39.3309C148.772 39.329 149.539 38.9712 150.181 38.2575L150.502 37.9006L147.647 35.3326C147.092 34.8333 146.557 34.5821 146.044 34.5791C145.56 34.5745 145.147 34.7625 144.805 35.1431C144.419 35.5714 144.264 36.063 144.339 36.618C144.428 37.1571 144.789 37.712 145.424 38.2826ZM142.13 40.2697C140.782 39.057 140.039 37.7292 139.903 36.2862C139.766 34.8433 140.218 33.5429 141.26 32.385C142.315 31.2113 143.585 30.6457 145.067 30.6881C146.58 30.7289 148.114 31.4483 149.668 32.8465L152.642 35.5215L153.177 34.9267C153.705 34.3398 153.914 33.7245 153.804 33.0808C153.695 32.437 153.307 31.8155 152.641 31.2163C152.181 30.8026 151.684 30.5419 151.149 30.4342C150.631 30.3408 150.172 30.3877 149.774 30.5749L146.444 27.5789C147.726 26.6953 149.147 26.2803 150.706 26.3337C152.28 26.4015 153.821 27.113 155.328 28.4683C157.009 29.9806 157.947 31.57 158.14 33.2365C158.35 34.9173 157.77 36.519 156.401 38.0417L149.125 46.1308L146.27 43.5628L147.197 41.8143L147.078 41.7073C145.334 42.147 143.685 41.6678 142.13 40.2697Z" fill="#1B1B1B"/>
<path d="M149.512 46.3386L156.726 45.9301C156.483 44.8679 156.548 43.832 156.923 42.8225C157.31 41.8302 157.988 40.9834 158.955 40.2821C160.371 39.2552 161.822 38.8754 163.306 39.1426C164.791 39.4098 166.054 40.2601 167.093 41.6936L171.977 48.4293L158.247 58.3851L155.617 54.7582L160.15 51.4709L159.117 50.046L152.517 50.4836L149.512 46.3386ZM161.416 46.4026L163.389 49.1228L166.109 47.1504L164.137 44.4303C163.385 43.394 162.534 43.2203 161.585 43.909C160.721 44.5352 160.665 45.3664 161.416 46.4026Z" fill="#1B1B1B"/>
</svg>
