<svg width="138" height="132" viewBox="0 0 138 132" fill="none" xmlns="http://www.w3.org/2000/svg">
<circle cx="70" cy="96" r="36" fill="#E07153"/>
<path fill-rule="evenodd" clip-rule="evenodd" d="M105.62 67.0552C106.219 71.2311 106.109 75.4816 105.296 79.6193L75.4562 81L74.9304 80.1164L74 78.5562C86.0411 71.1972 91.9065 69.858 105.62 67V67.0552ZM84.9893 75.9467C85.1641 75.9385 85.3374 75.984 85.4868 76.0774C85.6361 76.1709 85.7547 76.308 85.8273 76.4711C85.8999 76.6342 85.9231 76.8158 85.894 76.9925C85.8649 77.1692 85.7848 77.3329 85.664 77.4626C85.5431 77.5923 85.3872 77.682 85.2162 77.7201C85.0451 77.7582 84.8669 77.743 84.7043 77.6765C84.5418 77.61 84.4025 77.4951 84.3043 77.3468C84.2061 77.1985 84.1535 77.0234 84.1533 76.8442C84.1496 76.6122 84.2353 76.3879 84.3917 76.22C84.5481 76.0521 84.7627 75.954 84.9893 75.9467ZM85.1781 75.0769C85.4846 75.0631 85.7882 75.1436 86.0497 75.308C86.3112 75.4723 86.5186 75.713 86.6454 75.9992C86.7721 76.2853 86.8123 76.6037 86.7608 76.9134C86.7094 77.2232 86.5685 77.51 86.3565 77.7371C86.1445 77.9642 85.8709 78.1211 85.571 78.1876C85.2712 78.2542 84.9587 78.2273 84.6739 78.1104C84.3891 77.9936 84.1449 77.7922 83.9728 77.5321C83.8007 77.2719 83.7087 76.965 83.7084 76.6509C83.7011 76.2431 83.8515 75.8488 84.1268 75.5541C84.4021 75.2593 84.7799 75.0878 85.1781 75.0769Z" fill="#1B1B1B"/>
<path fill-rule="evenodd" clip-rule="evenodd" d="M85.1781 75.0769C85.4846 75.0631 85.7882 75.1436 86.0497 75.308C86.3112 75.4723 86.5186 75.713 86.6454 75.9992C86.7721 76.2853 86.8123 76.6037 86.7608 76.9134C86.7094 77.2232 86.5685 77.51 86.3565 77.7371C86.1445 77.9642 85.8709 78.1211 85.571 78.1876C85.2712 78.2542 84.9587 78.2273 84.6739 78.1104C84.3891 77.9936 84.1449 77.7922 83.9728 77.5321C83.8007 77.2719 83.7087 76.965 83.7084 76.6509C83.7011 76.2431 83.8515 75.8488 84.1268 75.5541C84.4021 75.2593 84.7799 75.0878 85.1781 75.0769ZM85.4868 76.0774C85.3374 75.984 85.1641 75.9385 84.9893 75.9467C84.7627 75.954 84.5481 76.0521 84.3917 76.22C84.2353 76.3879 84.1496 76.6122 84.1533 76.8442C84.1535 77.0234 84.2061 77.1985 84.3043 77.3468C84.4025 77.4951 84.5418 77.61 84.7043 77.6765C84.8669 77.743 85.0451 77.7582 85.2162 77.7201C85.3872 77.682 85.5431 77.5923 85.664 77.4626C85.7848 77.3329 85.8649 77.1692 85.894 76.9925C85.9231 76.8158 85.8999 76.6342 85.8273 76.4711C85.7547 76.308 85.6361 76.1709 85.4868 76.0774Z" fill="white"/>
<path fill-rule="evenodd" clip-rule="evenodd" d="M115 72.0753C112.869 69.9516 110.207 68.5358 107.337 68C107.486 72.6387 107.036 77.2772 106 81.7846L107.645 83C110.199 81.5701 114.131 75.4499 114.973 72.0753H115Z" fill="#1B1B1B"/>
<path fill-rule="evenodd" clip-rule="evenodd" d="M120.961 81.5941C120.297 78.6846 118.847 76.0449 116.79 74C115 78.6659 112.798 81.0741 109 84.0981L109.734 86C114.369 85.5758 117.459 84.8917 121 81.5394L120.961 81.5941Z" fill="#1B1B1B"/>
<path fill-rule="evenodd" clip-rule="evenodd" d="M119.985 94C121.721 90.9116 122.357 87.4217 121.808 84C117.567 86.4273 114.386 86.933 109.467 86.9836L109 88.8167C111.474 91.0038 113.524 92.6094 119.985 94Z" fill="#1B1B1B"/>
<path fill-rule="evenodd" clip-rule="evenodd" d="M118 96.0264C114.508 95.255 111.325 93.5075 108.846 91C107.879 93.2398 105.57 95.4144 100.872 95.1149C101.124 96.8967 100.82 98.7107 100 100.324C108.215 104.23 113.423 100.701 118 95.9613V96.0264Z" fill="#1B1B1B"/>
<path fill-rule="evenodd" clip-rule="evenodd" d="M98.6809 100C99.1701 99.5564 100.651 98.2812 99.6729 94.8158L84.5358 86L84.957 90.5881L78 93.4297L98.6945 100H98.6809Z" fill="#1B1B1B"/>
<path fill-rule="evenodd" clip-rule="evenodd" d="M107.487 85.1633C104.223 86.619 102.712 87.4218 101.794 91C103.563 89.2707 105.68 87.9438 108 87.1088C107.933 86.4369 107.76 85.78 107.487 85.1633ZM102.091 81C102.868 81.1585 103.617 81.4288 104.317 81.8027C100.877 84.932 100.27 85.2993 98.1115 89.4762C97.5719 85.3946 99.0019 84.2381 102.159 81H102.091ZM105.855 82.9456C106.273 83.3491 106.636 83.8066 106.934 84.3061C104.12 85.7008 101.691 87.7761 99.8652 90.3469C100.122 86.2653 101.727 85.381 105.383 82.7959L105.855 83V82.9456Z" fill="#1B1B1B"/>
<path d="M28.7255 45.6312C26.0412 47.4503 23.3446 48.0536 20.6359 47.441C17.9272 46.8284 15.5556 45.021 13.5211 42.0187C11.4866 39.0165 10.6868 36.144 11.1216 33.4011C11.5564 30.6583 13.116 28.3773 15.8004 26.5582C18.0256 25.0502 20.1714 24.395 22.2379 24.5923C24.3101 24.76 26.2338 25.6212 28.0088 27.1757L23.9028 29.9582C22.0065 28.7951 20.1135 28.8538 18.2238 30.1344C16.7757 31.1157 15.966 32.4118 15.7948 34.0225C15.6236 35.6332 16.1902 37.401 17.4947 39.326C18.7992 41.251 20.2311 42.4324 21.7906 42.8703C23.3501 43.3081 24.8539 43.0364 26.3021 42.055C28.1917 40.7745 28.9478 39.0381 28.5702 36.8457L32.6762 34.0632C33.4623 36.288 33.5552 38.4026 32.955 40.4071C32.3606 42.3819 30.9507 44.1233 28.7255 45.6312Z" fill="#1B1B1B"/>
<path d="M40.0107 34.9975L43.306 33.7599C43.8851 33.5424 44.272 33.2376 44.4666 32.8455C44.6811 32.4459 44.6984 32.0064 44.5183 31.5271C44.1208 30.4686 43.3229 30.1644 42.1246 30.6144L38.8294 31.852L40.0107 34.9975ZM37.1105 40.0176L31.1477 24.1404L39.3859 21.0465C40.9437 20.4614 42.2982 20.3971 43.4495 20.8535C44.6132 21.2824 45.4501 22.1758 45.9601 23.5339C46.5602 25.1316 46.2924 26.5425 45.157 27.7665C47.0247 27.8854 48.2548 28.7338 48.8473 30.3115C49.4099 31.8093 49.3918 33.1265 48.7931 34.2628C48.2144 35.3917 47.0662 36.2787 45.3487 36.9237L37.1105 40.0176ZM37.6481 28.7065L40.7935 27.5252C41.892 27.1126 42.2724 26.457 41.9349 25.5583C41.5974 24.6596 40.8794 24.4165 39.781 24.829L36.6355 26.0103L37.6481 28.7065Z" fill="#1B1B1B"/>
<path d="M59.1097 33.8599C56.5554 34.2327 54.4285 33.767 52.729 32.4627C51.0475 31.1343 50.0065 29.098 49.606 26.3537C49.2055 23.6094 49.6226 21.3711 50.8574 19.6386C52.1101 17.8819 54.0137 16.8172 56.5679 16.4444C58.9955 16.0901 61.0622 16.5862 62.7679 17.9326C64.4735 19.2791 65.5066 21.1872 65.8671 23.6571L65.9629 25.4217L54.4053 27.1085C55.1088 29.2696 56.4844 30.2007 58.532 29.9018C59.3342 29.7848 59.9279 29.5687 60.3131 29.2538C60.6983 28.9389 61.0303 28.4808 61.3091 27.8796L66.0588 27.1864C65.8496 28.8554 65.1888 30.3101 64.0762 31.5504C62.9606 32.7697 61.3051 33.5395 59.1097 33.8599ZM53.9201 23.7837L61.0446 22.7439C60.7587 21.9664 60.2696 21.3479 59.5773 20.8884C58.9061 20.4258 58.0955 20.2638 57.1456 20.4025C55.288 20.6736 54.2128 21.8007 53.9201 23.7837Z" fill="#1B1B1B"/>
<path d="M65.2992 31.7235L72.951 23.8968L67.6894 14.9259L73.0947 15.5396L77.5288 23.2893L78.341 16.1353L82.7924 16.6406L81.9802 23.7947L88.0387 17.2363L93.444 17.85L86.3052 25.4129L92.0077 34.7558L86.6024 34.1422L81.7275 26.0204L80.8792 33.4924L76.4278 32.987L77.2761 25.515L70.7045 32.3372L65.2992 31.7235Z" fill="#1B1B1B"/>
<path d="M89.3734 34.834L95.5422 19.0357L99.7153 20.6651L95.9908 30.2038L96.1398 30.262L105.528 22.9348L110.148 24.7389L103.979 40.5372L99.8063 38.9077L103.589 29.2201L103.44 29.1619L93.9937 36.6381L89.3734 34.834Z" fill="#1B1B1B"/>
<path d="M111.664 45.8952C109.532 44.4391 108.283 42.6558 107.917 40.5451C107.58 38.4289 108.193 36.2257 109.758 33.9357C111.322 31.6457 113.145 30.2817 115.227 29.8438C117.339 29.4002 119.46 29.9064 121.592 31.3625C123.617 32.7464 124.802 34.5113 125.144 36.6572C125.487 38.8031 124.954 40.9065 123.546 42.9675L122.421 44.3305L112.777 37.7421C111.83 39.8083 112.211 41.4251 113.92 42.5923C114.59 43.0496 115.173 43.2929 115.669 43.3222C116.166 43.3515 116.721 43.2394 117.333 42.986L121.296 45.6935C120.012 46.7796 118.54 47.402 116.882 47.5608C115.235 47.7019 113.496 47.1467 111.664 45.8952ZM114.672 34.9677L120.617 39.029C120.934 38.2634 120.993 37.4771 120.795 36.6701C120.614 35.8751 120.128 35.2069 119.335 34.6654C117.785 33.6064 116.231 33.7072 114.672 34.9677Z" fill="#1B1B1B"/>
</svg>
