<svg width="156" height="132" viewBox="0 0 156 132" fill="none" xmlns="http://www.w3.org/2000/svg">
<circle cx="80" cy="96" r="36" fill="#E07153"/>
<rect x="94" y="84" width="29" height="21" fill="white"/>
<path d="M86.3301 78H129V81H86.3301V78Z" fill="white"/>
<path fill-rule="evenodd" clip-rule="evenodd" d="M100.167 60.133C98.8909 60.4126 97.9392 60.9507 97.053 61.8936C95.3997 63.6528 95.0179 66.2702 96.0941 68.4681L96.3798 69.0516L99.1178 69.0443L101.856 69.0369L101.005 68.8214C99.9144 68.5451 99.4833 68.3216 99.0112 67.7876C98.049 66.6997 98.0755 64.9388 99.0712 63.8101C99.4915 63.3336 100.36 62.9004 101.037 62.83C102.083 62.7213 103.114 63.1463 103.675 63.9176C104.178 64.6091 104.711 66.2696 104.993 68.0246L105.15 69.0049L106.542 69.0309L107.934 69.0568L107.876 68.3658C107.749 66.8812 107.049 64.2508 106.479 63.1259C105.306 60.8068 102.71 59.5758 100.167 60.133ZM113.347 60.14C112.388 60.3449 111.258 60.9497 110.589 61.6163C109.437 62.7625 108.556 65.0395 108.142 67.9421C108.066 68.4754 108.003 68.9431 108.002 68.9816C108.001 69.0201 108.632 69.0516 109.405 69.0516C110.788 69.0516 110.811 69.0483 110.851 68.8416C110.873 68.7261 110.956 68.2323 111.036 67.7445C111.329 65.9618 111.987 64.1683 112.559 63.5989C113.336 62.8257 114.834 62.5955 115.888 63.0873C117.713 63.939 118.245 66.3165 116.948 67.8251C116.524 68.3177 116.073 68.5481 114.995 68.8221L114.144 69.0384L116.865 69.0217L119.585 69.0049L119.888 68.398C120.362 67.4508 120.506 66.7413 120.455 65.5981C120.422 64.859 120.35 64.4442 120.164 63.9185C119.188 61.1584 116.236 59.5224 113.347 60.14ZM84.6328 72.0647C84.0185 72.4732 83.9776 72.6676 84.0068 75.044C84.0352 77.3701 84.0413 77.3958 84.6785 77.8693L84.9376 78.0618H108H131.062L131.322 77.8693C131.959 77.3958 131.965 77.3701 131.993 75.044C132.022 72.6676 131.982 72.4732 131.367 72.0647L131.048 71.8527H108H84.9516L84.6328 72.0647ZM86.3309 92.4361C86.3309 100.552 86.3618 104.109 86.4355 104.457C86.7734 106.057 88.0733 107.35 89.689 107.694C92.5302 108.299 125.599 107.845 126.311 107.696C127.903 107.362 129.232 106.039 129.565 104.457C129.638 104.11 129.669 100.52 129.669 92.4361V80.9096H108H86.3309V92.4361ZM101.611 86.0506C103.128 86.3988 104.455 87.7195 104.805 89.2299C105.34 91.5393 103.746 93.8699 101.353 94.2784C99.5891 94.5795 97.7574 93.655 96.9501 92.0557C96.0961 90.3645 96.3884 88.5451 97.7279 87.2117C98.7847 86.1598 100.218 85.7311 101.611 86.0506ZM112.405 86.6285C113.051 86.9582 113.363 87.8154 113.053 88.4087C112.713 89.0576 105.41 101.621 105.287 101.768C105.206 101.865 104.957 102.026 104.736 102.124C103.569 102.644 102.401 101.359 102.995 100.209C103.553 99.13 110.605 87.0685 110.8 86.8595C111.227 86.4016 111.8 86.3192 112.405 86.6285ZM100.025 88.9229C99.656 89.1152 99.2761 89.7548 99.2761 90.1836C99.2761 90.8406 100.026 91.5537 100.717 91.5537C101.161 91.5537 101.695 91.2125 101.912 90.789C102.537 89.5685 101.243 88.2883 100.025 88.9229ZM116.325 94.4874C117.991 94.929 119.175 96.2258 119.469 97.9315C119.766 99.6579 118.761 101.553 117.15 102.303C115.45 103.095 113.652 102.795 112.355 101.504C110.626 99.7835 110.681 97.1148 112.479 95.472C113.532 94.5099 114.996 94.1352 116.325 94.4874ZM114.681 97.3112C114.012 97.639 113.72 98.5547 114.075 99.21C114.267 99.5643 114.915 99.957 115.307 99.957C115.763 99.957 116.325 99.5981 116.531 99.1749C116.769 98.6857 116.771 98.4348 116.541 97.9317C116.234 97.259 115.373 96.9716 114.681 97.3112Z" fill="#1B1B1B"/>
<path d="M23.8405 56.9971L9.01792 40.2027L22.6934 28.1329L37.5159 44.9273L33.9171 48.1036L21.9532 34.5481L15.4754 40.2653L27.4393 53.8208L23.8405 56.9971Z" fill="#1B1B1B"/>
<path d="M50.0324 36.1363C49.4361 38.1785 47.9932 39.7956 45.7036 40.9877C43.414 42.1798 41.2523 42.4395 39.2184 41.7667C37.1935 41.0652 35.5407 39.4845 34.26 37.0246C32.9792 34.5647 32.637 32.3137 33.2332 30.2715C33.8386 28.2006 35.2861 26.569 37.5756 25.3769C39.8652 24.1848 42.0224 23.9395 44.0473 24.6411C46.0812 25.3138 47.7385 26.8801 49.0193 29.34C50.3 31.7999 50.6377 34.0653 50.0324 36.1363ZM40.8686 37.6605C41.8765 38.0257 42.8724 37.9521 43.8563 37.4398C44.8403 36.9275 45.4717 36.1538 45.7505 35.1187C46.0195 34.0647 45.7845 32.8281 45.0456 31.4089C44.3067 29.9898 43.4333 29.0976 42.4254 28.7325C41.4077 28.3484 40.4069 28.4125 39.4229 28.9248C38.439 29.4371 37.8125 30.2203 37.5435 31.2743C37.2647 32.3094 37.4947 33.5365 38.2336 34.9557C38.9725 36.3748 39.8509 37.2765 40.8686 37.6605Z" fill="#1B1B1B"/>
<path d="M52.5485 40.8831L50.5297 33.142L52.0779 32.7383C52.3338 31.944 52.4496 31.1201 52.4254 30.2666C52.4165 29.387 52.2156 28.1938 51.8226 26.6869L50.0864 20.0295L63.0915 16.6379L66.3215 29.0237L68.3342 28.4988L70.353 36.2399L66.1728 37.33L65.2038 33.6143L55.7597 36.0772L56.7287 39.793L52.5485 40.8831ZM56.2581 31.6481L61.9865 30.1542L59.8062 21.7938L55.4712 22.9244L56.1576 25.5563C56.7282 27.7445 56.7617 29.7751 56.2581 31.6481Z" fill="#1B1B1B"/>
<path d="M76.2857 28.9635C77.3305 28.9279 78.1628 28.6115 78.7829 28.014C79.4235 27.3945 79.7275 26.6051 79.6949 25.6456L79.6786 25.1659L75.8408 25.2965C75.0945 25.3219 74.5353 25.5117 74.1632 25.8659C73.8116 26.198 73.6445 26.6199 73.6619 27.1316C73.6815 27.7073 73.9107 28.1691 74.3494 28.5171C74.7875 28.8437 75.4329 28.9925 76.2857 28.9635ZM75.2915 32.6794C73.4792 32.7411 72.0234 32.2997 70.9239 31.3552C69.8245 30.4107 69.2483 29.1602 69.1954 27.6038C69.1417 26.026 69.6636 24.7382 70.7609 23.7403C71.8789 22.7204 73.4826 22.1749 75.5721 22.1038L79.5698 21.9678L79.5426 21.1682C79.5157 20.3794 79.2396 19.7911 78.7141 19.4034C78.1886 19.0157 77.4781 18.8371 76.5826 18.8675C75.9643 18.8886 75.4253 19.0457 74.9657 19.3388C74.5274 19.6312 74.2298 19.9829 74.0731 20.3938L69.5956 20.5461C69.9066 19.02 70.642 17.7356 71.8019 16.6928C72.9831 15.6494 74.5865 15.0932 76.612 15.0243C78.872 14.9474 80.6498 15.4419 81.9455 16.5078C83.2625 17.573 83.9558 19.129 84.0254 21.1758L84.3953 32.0495L80.5576 32.1801L80.0126 30.2775L79.8527 30.283C78.9013 31.8095 77.381 32.6083 75.2915 32.6794Z" fill="#1B1B1B"/>
<path d="M84.6875 38.3155L89.0522 15.3669L92.8246 16.0844L92.9374 18.0603L93.0946 18.0902C94.6311 16.8623 96.3424 16.4277 98.2286 16.7865C100.408 17.201 102.015 18.2883 103.048 20.0484C104.085 21.7875 104.341 24.0403 103.815 26.8067C103.289 29.5731 102.222 31.5852 100.614 32.8431C99.0111 34.0799 97.1197 34.4911 94.9401 34.0765C92.991 33.7058 91.6011 32.7357 90.7704 31.1662L90.6132 31.1363L89.0886 39.1526L84.6875 38.3155ZM92.2621 28.2903C92.8271 29.2012 93.6546 29.7603 94.7444 29.9676C95.8342 30.1749 96.8091 29.9586 97.6691 29.3187C98.5332 28.6578 99.1146 27.5414 99.4136 25.9696C99.7126 24.3978 99.5795 23.1564 99.0144 22.2455C98.4533 21.3135 97.6279 20.7439 96.5381 20.5367C95.4483 20.3294 94.4714 20.5562 93.6074 21.217C92.7473 21.857 92.1678 22.9628 91.8689 24.5346C91.5699 26.1065 91.701 27.3583 92.2621 28.2903Z" fill="#1B1B1B"/>
<path d="M102.719 35.3242L109.615 19.8293L113.708 21.6508L109.544 31.0062L109.691 31.0713L119.409 24.1879L123.94 26.2045L117.045 41.6994L112.952 39.8779L117.18 30.3763L117.034 30.3113L107.251 37.3409L102.719 35.3242Z" fill="#1B1B1B"/>
<path d="M118.475 42.1687L129.063 28.9197L133.937 32.8153L130.519 42.9871L130.644 43.0869L139.812 37.5099L144.687 41.4055L134.099 54.6545L130.599 51.8577L137.191 43.6083L137.066 43.5084L127.474 49.3605L125.099 47.4627L128.692 36.816L128.567 36.7161L121.975 44.9655L118.475 42.1687Z" fill="#1B1B1B"/>
</svg>
