<svg width="51" height="59" viewBox="0 0 51 59" fill="none" xmlns="http://www.w3.org/2000/svg">
<path fill-rule="evenodd" clip-rule="evenodd" d="M26.393 1.63506C26.252 1.67985 25.7823 2.43399 25.6196 2.87677C25.5202 3.14697 25.493 3.40945 25.5151 3.88214C25.5447 4.51352 25.5506 4.53054 25.9713 5.17763C26.3234 5.71917 26.4043 5.90462 26.4358 6.24268C26.4807 6.72397 26.3248 7.27493 25.9762 7.86642C25.632 8.45043 25.6803 8.6918 26.1413 8.6918C26.3922 8.6918 26.5276 8.58003 26.8026 8.1458C27.1764 7.55557 27.3503 6.91659 27.3144 6.26586C27.2836 5.70924 27.2642 5.65659 26.849 5.0053L26.4156 4.32555V3.69731C26.4156 3.08729 26.4254 3.05299 26.7531 2.51333C26.9387 2.2077 27.0906 1.93203 27.0906 1.9008C27.0906 1.86958 27.0191 1.78747 26.9318 1.71836C26.7772 1.59611 26.6012 1.56891 26.393 1.63506ZM20.357 4.27843C19.7874 4.91936 19.4952 5.88446 19.6344 6.66573C19.6903 6.97941 19.8179 7.25332 20.1247 7.71803L20.5395 8.34627L20.5368 8.94309C20.5343 9.49249 20.5098 9.58484 20.2296 10.1053C20.0621 10.4163 19.9082 10.7439 19.8877 10.8334C19.8394 11.0431 20.054 11.2179 20.3285 11.1924C20.5968 11.1676 20.815 10.9056 21.1433 10.2143C21.3813 9.71319 21.4042 9.6023 21.4084 8.93694L21.4129 8.20831L20.9776 7.5234C20.5839 6.90402 20.5394 6.79251 20.5129 6.35815C20.4796 5.80995 20.6189 5.34782 20.9781 4.81532C21.197 4.49071 21.2083 4.36287 21.0335 4.18419C20.8928 4.04033 20.5228 4.09191 20.357 4.27843ZM32.0472 4.36494C31.9334 4.50749 31.7471 4.81143 31.633 5.04029C31.4511 5.40549 31.4253 5.54935 31.422 6.21642L31.4183 6.97652L31.8551 7.66136L32.2918 8.34627L32.2908 8.94309C32.2899 9.49305 32.266 9.58433 31.9867 10.1053C31.5888 10.8477 31.5674 10.9318 31.7385 11.0813C31.9146 11.2353 32.1871 11.24 32.3565 11.0919C32.5457 10.9265 32.9357 10.2183 33.0798 9.77852C33.2388 9.2929 33.2403 8.55736 33.0831 8.13851C33.016 7.95984 32.8106 7.59427 32.6265 7.32607C32.2966 6.84547 32.2918 6.82951 32.2918 6.21026C32.2918 5.59754 32.3004 5.56776 32.6407 5.00373C32.9791 4.44303 32.9857 4.4206 32.8573 4.26555C32.6408 4.00414 32.3019 4.04573 32.0472 4.36494Z" fill="#1B1B1B"/>
<path fill-rule="evenodd" clip-rule="evenodd" d="M17.7418 25.2698L24.3363 30.6161C24.8381 30.9949 25.4497 31.1999 26.0785 31.1999C26.7072 31.1999 27.3189 30.9949 27.8207 30.6161L34.4152 25.2698C34.6441 25.0831 34.827 24.8462 34.9497 24.5774C35.0723 24.3087 35.1315 24.0153 35.1225 23.72V15.4925C35.1443 15.1973 35.1068 14.9007 35.0121 14.6202C34.9174 14.3397 34.7675 14.0811 34.5712 13.8595C34.6566 14.1999 34.6401 14.5579 34.5236 14.889C34.407 15.22 34.1957 15.5095 33.9159 15.7213L27.311 21.0676C26.8233 21.4737 26.2087 21.6961 25.574 21.6961C24.9394 21.6961 24.3247 21.4737 23.837 21.0676L17.2425 15.7213C16.9061 15.461 16.6678 15.0944 16.5664 14.6812L16.4 15.7213L17.0033 23.7928C17.0084 24.0793 17.0752 24.3614 17.199 24.6198C17.3229 24.8783 17.5009 25.107 17.721 25.2906L17.7418 25.2698Z" fill="#1B1B1B"/>
<path fill-rule="evenodd" clip-rule="evenodd" d="M27.3943 17.2712L27.7064 17.0216L30.0778 15.0973C30.181 15.022 30.265 14.9234 30.3228 14.8096C30.3807 14.6957 30.4108 14.5698 30.4108 14.442C30.4108 14.3143 30.3807 14.1884 30.3228 14.0745C30.265 13.9607 30.181 13.8621 30.0778 13.7868L26.5726 10.968C26.3392 10.7908 26.0543 10.6949 25.7613 10.6949C25.4683 10.6949 25.1833 10.7908 24.95 10.968L23.9827 11.7481C23.0049 12.549 23.6706 13.5683 24.3259 14.5253C24.588 14.9215 24.88 15.2971 25.1996 15.6486C25.5845 16.0647 26.8431 17.7289 27.3943 17.292V17.2712Z" fill="#E07153"/>
<path fill-rule="evenodd" clip-rule="evenodd" d="M21.216 15.2951L24.7212 18.1347C24.9051 18.2721 25.1209 18.3604 25.3484 18.3913C25.5758 18.4223 25.8075 18.3948 26.0214 18.3115C26.7807 18.0202 25.9173 17.521 25.5429 17.1777C25.1684 16.8345 24.7524 16.4496 24.5028 16.1376C24.1655 15.7692 23.8561 15.3764 23.577 14.9622C22.7137 13.7141 23.0778 12.5075 22.1105 13.298L21.2575 13.9845C21.1543 14.0609 21.0704 14.1605 21.0126 14.2752C20.9548 14.3899 20.9247 14.5166 20.9247 14.645C20.9247 14.7734 20.9548 14.9001 21.0126 15.0148C21.0704 15.1295 21.1543 15.2291 21.2575 15.3055L21.216 15.2951Z" fill="#E07153"/>
<path d="M2.50992 46V37.6H7.72992V39.22H4.30992V46H2.50992ZM12.6579 45.256C12.1059 45.832 11.3459 46.12 10.3779 46.12C9.40989 46.12 8.64589 45.832 8.08589 45.256C7.53389 44.672 7.25789 43.86 7.25789 42.82C7.25789 41.78 7.53389 40.972 8.08589 40.396C8.64589 39.812 9.40989 39.52 10.3779 39.52C11.3459 39.52 12.1059 39.812 12.6579 40.396C13.2179 40.972 13.4979 41.78 13.4979 42.82C13.4979 43.86 13.2179 44.672 12.6579 45.256ZM9.34589 44.176C9.61789 44.472 9.96189 44.62 10.3779 44.62C10.7939 44.62 11.1379 44.472 11.4099 44.176C11.6819 43.872 11.8179 43.42 11.8179 42.82C11.8179 42.22 11.6819 41.772 11.4099 41.476C11.1379 41.172 10.7939 41.02 10.3779 41.02C9.96189 41.02 9.61789 41.172 9.34589 41.476C9.07389 41.772 8.93789 42.22 8.93789 42.82C8.93789 43.42 9.07389 43.872 9.34589 44.176ZM14.636 48.4V39.64H16.076L16.256 40.36H16.316C16.796 39.8 17.396 39.52 18.116 39.52C18.948 39.52 19.616 39.808 20.12 40.384C20.624 40.952 20.876 41.764 20.876 42.82C20.876 43.876 20.624 44.692 20.12 45.268C19.616 45.836 18.948 46.12 18.116 46.12C17.372 46.12 16.792 45.86 16.376 45.34H16.316V48.4H14.636ZM16.724 44.176C16.996 44.472 17.34 44.62 17.756 44.62C18.172 44.62 18.516 44.472 18.788 44.176C19.06 43.872 19.196 43.42 19.196 42.82C19.196 42.22 19.06 41.772 18.788 41.476C18.516 41.172 18.172 41.02 17.756 41.02C17.34 41.02 16.996 41.172 16.724 41.476C16.452 41.772 16.316 42.22 16.316 42.82C16.316 43.42 16.452 43.872 16.724 44.176ZM21.5388 46L23.0028 43.72C22.6268 43.56 22.3268 43.312 22.1028 42.976C21.8868 42.64 21.7788 42.248 21.7788 41.8C21.7788 41.144 21.9828 40.62 22.3908 40.228C22.7988 39.836 23.3348 39.64 23.9988 39.64H27.1188V46H25.4388V43.9H24.7788L23.4588 46H21.5388ZM24.1788 42.4H25.4388V41.14H24.1788C23.6988 41.14 23.4588 41.36 23.4588 41.8C23.4588 42.2 23.6988 42.4 24.1788 42.4ZM32.2779 46V44.02C31.8779 44.18 31.4379 44.26 30.9579 44.26C30.1259 44.26 29.4979 44.048 29.0739 43.624C28.6499 43.2 28.4379 42.592 28.4379 41.8V39.64H30.1179V41.8C30.1179 42.44 30.4979 42.76 31.2579 42.76C31.6739 42.76 32.0139 42.68 32.2779 42.52V39.64H33.9579V46H32.2779ZM35.4016 46V39.64H37.0816V43.48H37.1416L39.4216 39.64H41.2816V46H39.6016V42.1H39.5416L37.2616 46H35.4016ZM42.7259 46V39.64H44.4059V43.48H44.4659L46.7459 39.64H48.6059V46H46.9259V42.1H46.8659L44.5859 46H42.7259ZM46.9619 38.296C46.6099 38.592 46.1779 38.74 45.6659 38.74C45.1539 38.74 44.7179 38.592 44.3579 38.296C44.0059 37.992 43.8019 37.54 43.7459 36.94H44.9459C45.0019 37.42 45.2419 37.66 45.6659 37.66C46.0899 37.66 46.3299 37.42 46.3859 36.94H47.5859C47.5299 37.54 47.3219 37.992 46.9619 38.296ZM12.0286 58.4V49.64H13.4686L13.6486 50.36H13.7086C14.1886 49.8 14.7886 49.52 15.5086 49.52C16.3406 49.52 17.0086 49.808 17.5126 50.384C18.0166 50.952 18.2686 51.764 18.2686 52.82C18.2686 53.876 18.0166 54.692 17.5126 55.268C17.0086 55.836 16.3406 56.12 15.5086 56.12C14.7646 56.12 14.1846 55.86 13.7686 55.34H13.7086V58.4H12.0286ZM14.1166 54.176C14.3886 54.472 14.7326 54.62 15.1486 54.62C15.5646 54.62 15.9086 54.472 16.1806 54.176C16.4526 53.872 16.5886 53.42 16.5886 52.82C16.5886 52.22 16.4526 51.772 16.1806 51.476C15.9086 51.172 15.5646 51.02 15.1486 51.02C14.7326 51.02 14.3886 51.172 14.1166 51.476C13.8446 51.772 13.7086 52.22 13.7086 52.82C13.7086 53.42 13.8446 53.872 14.1166 54.176ZM24.5114 55.256C23.9594 55.832 23.1994 56.12 22.2314 56.12C21.2634 56.12 20.4994 55.832 19.9394 55.256C19.3874 54.672 19.1114 53.86 19.1114 52.82C19.1114 51.78 19.3874 50.972 19.9394 50.396C20.4994 49.812 21.2634 49.52 22.2314 49.52C23.1994 49.52 23.9594 49.812 24.5114 50.396C25.0714 50.972 25.3514 51.78 25.3514 52.82C25.3514 53.86 25.0714 54.672 24.5114 55.256ZM21.1994 54.176C21.4714 54.472 21.8154 54.62 22.2314 54.62C22.6474 54.62 22.9914 54.472 23.2634 54.176C23.5354 53.872 23.6714 53.42 23.6714 52.82C23.6714 52.22 23.5354 51.772 23.2634 51.476C22.9914 51.172 22.6474 51.02 22.2314 51.02C21.8154 51.02 21.4714 51.172 21.1994 51.476C20.9274 51.772 20.7914 52.22 20.7914 52.82C20.7914 53.42 20.9274 53.872 21.1994 54.176ZM25.8895 56.12V54.44H26.0695C26.4455 54.44 26.6895 54.28 26.8015 53.96C26.9135 53.632 26.9695 53.012 26.9695 52.1V49.64H32.0095V56H30.3295V51.2H28.6495V52.34C28.6495 52.804 28.6295 53.212 28.5895 53.564C28.5575 53.916 28.4895 54.26 28.3855 54.596C28.2895 54.932 28.1575 55.208 27.9895 55.424C27.8215 55.632 27.5935 55.8 27.3055 55.928C27.0255 56.056 26.6935 56.12 26.3095 56.12H25.8895ZM32.8505 56.12V54.44H33.0305C33.4065 54.44 33.6505 54.28 33.7625 53.96C33.8745 53.632 33.9305 53.012 33.9305 52.1V49.64H38.9705V56H37.2905V51.2H35.6105V52.34C35.6105 52.804 35.5905 53.212 35.5505 53.564C35.5185 53.916 35.4505 54.26 35.3465 54.596C35.2505 54.932 35.1185 55.208 34.9505 55.424C34.7825 55.632 34.5545 55.8 34.2665 55.928C33.9865 56.056 33.6545 56.12 33.2705 56.12H32.8505Z" fill="#1B1B1B"/>
</svg>
