<svg width="32" height="32" viewBox="0 0 32 32" fill="none" xmlns="http://www.w3.org/2000/svg">
<path fill-rule="evenodd" clip-rule="evenodd" d="M30.7926 24.5316L25.3637 28.4926C24.9392 28.7709 24.4425 28.9192 23.9348 28.9192C23.4271 28.9192 22.9305 28.7709 22.506 28.4926L17.0771 24.5316C16.8932 24.4012 16.7439 24.2277 16.6425 24.0263C16.541 23.825 16.4904 23.6018 16.4951 23.3764V23.0463C16.291 23.1001 16.0807 23.1263 15.8697 23.1245C15.573 23.126 15.2786 23.073 15.0011 22.9681V23.5675C14.9944 23.7857 14.9377 23.9994 14.8353 24.1922C14.7328 24.385 14.5875 24.5516 14.4104 24.6793L8.95547 28.675C8.52999 28.9552 8.03174 29.1045 7.52228 29.1045C7.01282 29.1045 6.51452 28.9552 6.08904 28.675L0.668855 24.7141C0.482756 24.5851 0.331452 24.4122 0.228395 24.2106C0.125337 24.0091 0.073733 23.7851 0.0781994 23.5588V14.7076C0.0263627 14.5596 -9.21967e-05 14.404 2.41408e-07 14.2472C0.00822014 14.0031 0.0748085 13.7645 0.194199 13.5514C0.31359 13.3383 0.482341 13.1569 0.686244 13.0224L6.11512 9.07019C6.60645 8.72795 7.19285 8.54869 7.79155 8.5577C8.0782 8.5577 7.9479 8.48821 8.21717 8.5577V7.68908C8.22563 7.44403 8.29323 7.20465 8.41423 6.99139C8.53523 6.77812 8.70603 6.59729 8.91205 6.46433L14.3322 2.50342C14.8313 2.17501 15.4156 2 16.013 2C16.6104 2 17.1947 2.17501 17.6938 2.50342L23.114 6.46433C23.319 6.59836 23.489 6.77944 23.6099 6.99247C23.7308 7.20551 23.799 7.44434 23.8089 7.68908V8.42742C24.0348 8.3753 23.9653 8.42742 24.1998 8.42742C24.797 8.41986 25.3821 8.5957 25.8762 8.9312L31.3051 12.8921C31.5101 13.0261 31.6802 13.2072 31.801 13.4203C31.9219 13.6333 31.9901 13.8721 32 14.1169C31.998 14.3086 31.9566 14.4978 31.8784 14.6728L31.3833 23.4632C31.3766 23.6814 31.3198 23.8952 31.2174 24.088C31.115 24.2807 30.9697 24.4474 30.7926 24.5751V24.5316ZM0.703581 14.3861C0.799612 14.5256 0.920334 14.6462 1.05974 14.7423L6.48862 18.7032C6.90349 19.006 7.40382 19.1693 7.91747 19.1693C8.43111 19.1693 8.9315 19.006 9.34636 18.7032L14.7057 14.7944C14.8164 14.6331 14.8769 14.4427 14.8795 14.2472C14.8743 14.0739 14.8273 13.9045 14.7426 13.7533C14.658 13.6021 14.538 13.4735 14.393 13.3786L8.96417 9.41763C8.61706 9.17886 8.2041 9.05438 7.78286 9.06152C7.36193 9.05666 6.94965 9.18093 6.60155 9.41763L1.18136 13.3786C1.03481 13.4719 0.91364 13.6 0.828752 13.7516C0.743865 13.9032 0.697911 14.0735 0.694939 14.2472C0.69062 14.2934 0.69062 14.3399 0.694939 14.3861H0.703581ZM6.43651 15.8976L6.18457 15.7065L4.23018 14.2819C4.1476 14.2304 4.07954 14.1587 4.03232 14.0736C3.9851 13.9885 3.96032 13.8928 3.96032 13.7955C3.96032 13.6982 3.9851 13.6024 4.03232 13.5173C4.07954 13.4322 4.1476 13.3606 4.23018 13.3091L7.114 11.207C7.31203 11.0791 7.54277 11.0111 7.77851 11.0111C8.01425 11.0111 8.24499 11.0791 8.44302 11.207L9.24213 11.789C10.05 12.3796 9.50271 13.144 8.96417 13.8476C8.74239 14.152 8.50158 14.4422 8.2432 14.7162C7.92181 15.0202 6.89688 16.2624 6.43651 15.9323V15.8976ZM11.5179 14.4296L8.64278 16.5143C8.48506 16.6167 8.30603 16.6816 8.11935 16.7042C7.93267 16.7268 7.74329 16.7064 7.5657 16.6446C6.9403 16.4274 7.65258 16.0626 7.96529 15.7759C8.27799 15.4893 8.61675 15.2374 8.83391 15.0029C9.10895 14.7343 9.36168 14.4438 9.5896 14.1343C10.3019 13.2222 10.0065 12.3275 10.8056 12.9095L11.5005 13.422C11.5852 13.4719 11.6554 13.543 11.7041 13.6283C11.7529 13.7136 11.7785 13.8102 11.7785 13.9084C11.7785 14.0067 11.7529 14.1032 11.7041 14.1885C11.6554 14.2738 11.5852 14.345 11.5005 14.3948L11.5179 14.4296ZM17.1553 12.4926L22.5841 8.53165C22.7354 8.44269 22.8609 8.31575 22.9481 8.16339C23.0353 8.01104 23.0811 7.83855 23.0811 7.66303C23.0811 7.4875 23.0353 7.31501 22.9481 7.16266C22.8609 7.0103 22.7354 6.88336 22.5841 6.7944L17.1553 2.8335C16.8081 2.59472 16.3952 2.47022 15.9739 2.47736C15.553 2.4725 15.1407 2.5968 14.7926 2.8335L9.37245 6.7944C9.22113 6.88336 9.09566 7.0103 9.00849 7.16266C8.92133 7.31501 8.87547 7.4875 8.87547 7.66303C8.87547 7.83855 8.92133 8.01104 9.00849 8.16339C9.09566 8.31575 9.22113 8.44269 9.37245 8.53165L14.7926 12.4926C15.1407 12.7293 15.553 12.8536 15.9739 12.8487C16.3952 12.8558 16.8081 12.7313 17.1553 12.4926ZM14.6276 9.3134L14.3757 9.131L12.4213 7.70645C12.3387 7.65494 12.2706 7.58327 12.2234 7.49817C12.1762 7.41307 12.1514 7.31734 12.1514 7.22002C12.1514 7.1227 12.1762 7.027 12.2234 6.9419C12.2706 6.8568 12.3387 6.7851 12.4213 6.73359L15.3051 4.63155C15.5015 4.49935 15.7329 4.42873 15.9696 4.42873C16.2063 4.42873 16.4377 4.49935 16.6341 4.63155L17.4332 5.21351C18.241 5.80417 17.6938 6.55988 17.1553 7.26347C16.9359 7.56977 16.695 7.86004 16.4343 8.13209C16.1216 8.44479 15.088 9.68691 14.6276 9.34815V9.3134ZM17.1118 14.2385C17.2134 14.3762 17.3366 14.4964 17.4766 14.5946L22.8969 18.5555C23.3117 18.8584 23.8121 19.0216 24.3257 19.0216C24.8394 19.0216 25.3397 18.8584 25.7546 18.5555L31.114 14.6467C31.2247 14.4855 31.2851 14.2951 31.2877 14.0995C31.2825 13.9263 31.2356 13.7569 31.1509 13.6056C31.0662 13.4544 30.9463 13.3259 30.8013 13.2309L25.3724 9.26998C25.0222 9.03765 24.6113 8.91374 24.1911 8.91374C23.7709 8.91374 23.3599 9.03765 23.0097 9.26998L17.5809 13.2309C17.4359 13.3259 17.316 13.4544 17.2313 13.6056C17.1466 13.7569 17.0997 13.9263 17.0944 14.0995C17.0944 14.0995 17.0944 14.1951 17.0944 14.2385H17.1118ZM22.8534 15.7499L22.6015 15.5588L20.6471 14.1343C20.5645 14.0828 20.4964 14.0111 20.4492 13.926C20.402 13.8409 20.3772 13.7452 20.3772 13.6478C20.3772 13.5505 20.402 13.4548 20.4492 13.3697C20.4964 13.2846 20.5645 13.2129 20.6471 13.1614L23.5223 11.0593C23.722 10.9317 23.9541 10.8639 24.1911 10.8639C24.4281 10.8639 24.6602 10.9317 24.8599 11.0593L25.6591 11.6413C26.4669 12.232 25.9197 12.9877 25.3724 13.6999C25.1572 13.9934 24.919 14.2693 24.6601 14.5251C24.3388 14.8378 23.3138 16.08 22.8534 15.7499ZM27.9349 14.2819L25.051 16.384C24.8949 16.4862 24.7173 16.5512 24.532 16.5738C24.3467 16.5963 24.1588 16.576 23.9827 16.5143C23.3572 16.2971 24.0695 15.9323 24.3822 15.6457C24.6949 15.359 25.0336 15.1071 25.2508 14.8726C25.5258 14.604 25.7786 14.3135 26.0065 14.0039C26.7188 13.0919 26.4234 12.1972 27.2139 12.7792L27.9175 13.2917C28.0001 13.3432 28.0682 13.4149 28.1154 13.5C28.1626 13.5851 28.1874 13.6808 28.1874 13.7781C28.1874 13.8754 28.1626 13.9712 28.1154 14.0563C28.0682 14.1414 28.0001 14.213 27.9175 14.2645L27.9349 14.2819ZM19.7177 7.82807L16.8339 9.93014C16.6793 10.0357 16.502 10.1033 16.3163 10.1275C16.1307 10.1516 15.9419 10.1316 15.7655 10.0691C15.1401 9.85194 15.8437 9.48712 16.1564 9.20047C16.4691 8.91383 16.8078 8.66194 17.025 8.42742C17.2421 8.19289 17.4767 7.9323 17.7807 7.5588C18.4843 6.63806 18.189 5.75206 18.9881 6.33404L19.6917 6.83783C19.7742 6.88933 19.8423 6.96103 19.8895 7.04613C19.9367 7.13123 19.9615 7.22695 19.9615 7.32428C19.9615 7.4216 19.9367 7.5173 19.8895 7.6024C19.8423 7.6875 19.7742 7.7592 19.6917 7.8107L19.7177 7.82807Z" fill="#1B1B1B"/>
<path fill-rule="evenodd" clip-rule="evenodd" d="M6.43646 15.8976L6.18452 15.7065L4.23013 14.2819C4.14755 14.2304 4.07949 14.1587 4.03227 14.0736C3.98505 13.9885 3.96027 13.8928 3.96027 13.7955C3.96027 13.6982 3.98505 13.6024 4.03227 13.5173C4.07949 13.4322 4.14755 13.3606 4.23013 13.3091L7.11395 11.207C7.31198 11.0791 7.54272 11.0111 7.77846 11.0111C8.0142 11.0111 8.24494 11.0791 8.44297 11.207L9.24208 11.789C10.0499 12.3796 9.50266 13.144 8.96412 13.8476C8.74234 14.152 8.50153 14.4422 8.24315 14.7162C7.92176 15.0202 6.89683 16.2624 6.43646 15.9323V15.8976ZM11.5179 14.4296L8.64273 16.5143C8.48501 16.6167 8.30598 16.6816 8.1193 16.7042C7.93262 16.7268 7.74324 16.7064 7.56565 16.6446C6.94025 16.4274 7.65253 16.0626 7.96524 15.7759C8.27794 15.4893 8.6167 15.2374 8.83386 15.0029C9.10889 14.7343 9.36162 14.4438 9.58955 14.1343C10.3018 13.2222 10.0065 12.3275 10.8056 12.9095L11.5005 13.422C11.5851 13.4719 11.6553 13.543 11.7041 13.6283C11.7528 13.7136 11.7784 13.8102 11.7784 13.9084C11.7784 14.0067 11.7528 14.1032 11.7041 14.1885C11.6553 14.2738 11.5851 14.345 11.5005 14.3948L11.5179 14.4296ZM14.6275 9.3134L14.3757 9.131L12.4213 7.70645C12.3387 7.65494 12.2706 7.58327 12.2234 7.49817C12.1761 7.41307 12.1514 7.31734 12.1514 7.22002C12.1514 7.1227 12.1761 7.027 12.2234 6.9419C12.2706 6.8568 12.3387 6.7851 12.4213 6.73359L15.305 4.63155C15.5014 4.49935 15.7328 4.42873 15.9695 4.42873C16.2063 4.42873 16.4377 4.49935 16.6341 4.63155L17.4332 5.21351C18.241 5.80417 17.6937 6.55988 17.1552 7.26347C16.9358 7.56977 16.6949 7.86004 16.4343 8.13209C16.1216 8.44479 15.0879 9.68691 14.6275 9.34815V9.3134ZM22.8533 15.7499L22.6015 15.5588L20.6471 14.1343C20.5645 14.0828 20.4964 14.0111 20.4492 13.926C20.4019 13.8409 20.3772 13.7452 20.3772 13.6478C20.3772 13.5505 20.4019 13.4548 20.4492 13.3697C20.4964 13.2846 20.5645 13.2129 20.6471 13.1614L23.5222 11.0593C23.7219 10.9317 23.954 10.8639 24.1911 10.8639C24.4281 10.8639 24.6601 10.9317 24.8599 11.0593L25.659 11.6413C26.4668 12.232 25.9196 12.9877 25.3724 13.6999C25.1571 13.9934 24.9189 14.2693 24.6601 14.5251C24.3387 14.8378 23.3137 16.08 22.8533 15.7499ZM27.9348 14.2819L25.051 16.384C24.8948 16.4862 24.7172 16.5512 24.532 16.5738C24.3467 16.5963 24.1587 16.576 23.9826 16.5143C23.3572 16.2971 24.0694 15.9323 24.3821 15.6457C24.6948 15.359 25.0336 15.1071 25.2508 14.8726C25.5258 14.604 25.7785 14.3135 26.0064 14.0039C26.7187 13.0919 26.4234 12.1972 27.2138 12.7792L27.9174 13.2917C28 13.3432 28.0681 13.4149 28.1153 13.5C28.1626 13.5851 28.1873 13.6808 28.1873 13.7781C28.1873 13.8754 28.1626 13.9712 28.1153 14.0563C28.0681 14.1414 28 14.213 27.9174 14.2645L27.9348 14.2819ZM19.7176 7.82807L16.8338 9.93014C16.6792 10.0357 16.5019 10.1033 16.3163 10.1275C16.1306 10.1516 15.9419 10.1316 15.7654 10.0691C15.14 9.85194 15.8436 9.48712 16.1563 9.20047C16.469 8.91383 16.8078 8.66194 17.0249 8.42742C17.2421 8.19289 17.4766 7.9323 17.7806 7.5588C18.4842 6.63806 18.1889 5.75206 18.988 6.33404L19.6916 6.83783C19.7742 6.88933 19.8423 6.96103 19.8895 7.04613C19.9367 7.13123 19.9615 7.22695 19.9615 7.32428C19.9615 7.4216 19.9367 7.5173 19.8895 7.6024C19.8423 7.6875 19.7742 7.7592 19.6916 7.8107L19.7176 7.82807Z" fill="#E07153"/>
</svg>
