<svg width="32" height="32" viewBox="0 0 32 32" fill="none" xmlns="http://www.w3.org/2000/svg">
<path fill-rule="evenodd" clip-rule="evenodd" d="M5.72598 0.10092C5.01777 0.409363 4.85049 1.35083 5.40532 1.90574C5.86068 2.36103 6.51084 2.36103 6.9662 1.90574C7.83741 1.03446 6.85726 -0.391857 5.72598 0.10092ZM13.0264 1.78563C12.3182 2.09407 12.1509 3.03554 12.7057 3.59045C13.1611 4.04574 13.8112 4.04574 14.2666 3.59045C15.1378 2.71917 14.1577 1.29285 13.0264 1.78563ZM20.927 1.79602C19.6815 2.06354 18.4836 2.99918 17.9182 4.14612C17.55 4.89287 17.4199 5.50905 17.4184 6.51286L17.4172 7.30256L18.7684 7.30137C20.3717 7.2999 20.8521 7.21791 21.6967 6.8015C22.8482 6.2339 23.7892 5.01747 24.0513 3.75765C24.1076 3.4874 24.1541 2.91095 24.1548 2.47657L24.156 1.68686L22.7696 1.69241C21.8683 1.69606 21.2236 1.73228 20.927 1.79602ZM2.67595 5.54836C1.6473 5.67212 0.907988 5.98877 0.413596 6.51735C0.0408542 6.91578 -0.0270255 7.10194 0.0392397 7.5439C0.194724 8.58063 3.02139 12.9913 5.22674 15.6384L5.76774 16.2877H6.25884H6.75L6.70683 16.0946C6.00746 12.9654 4.71319 10.5468 2.58933 8.39994L1.90414 7.70732L2.26615 7.28937L2.62822 6.87149L3.28954 7.52572C4.08177 8.3096 4.93866 9.35264 5.49931 10.2157C6.30699 11.4589 7.12857 13.2447 7.45407 14.4646C7.54132 14.7917 7.63574 15.0859 7.66381 15.1184C7.7385 15.2048 8.11995 14.1694 8.26785 13.4787C8.44531 12.6504 8.44531 10.8701 8.26785 10.0402C8.10956 9.29951 7.75942 8.35523 7.44347 7.81668C7.31157 7.59184 6.94676 7.14694 6.63277 6.82797C6.18036 6.36846 5.95461 6.19901 5.54473 6.01144C4.65113 5.60255 3.61539 5.43534 2.67595 5.54836ZM9.85036 6.87395C9.45936 7.009 9.05917 7.2933 8.8323 7.59718C8.69759 7.77758 8.6978 7.78053 8.87996 8.23582C9.56725 9.95381 9.72969 12.0371 9.31623 13.8308C9.2228 14.2362 9.12326 14.6311 9.09512 14.7083C8.9112 15.2123 9.8121 13.8691 10.225 13.0236C10.625 12.2044 10.9818 11.1013 11.1392 10.1973L11.2646 9.47689L11.4804 9.50981C11.5991 9.52785 11.8486 9.56211 12.0349 9.58598L12.3736 9.62922L12.3292 9.9225C11.9825 12.2075 11.1022 14.2055 9.72899 15.8242L9.33582 16.2877H10.647H11.9582L11.9108 16.1297C11.8848 16.0428 11.8465 15.7033 11.8257 15.3751C11.7164 13.6441 12.717 11.9224 14.2689 11.1712C14.5969 11.0125 14.9182 10.8826 14.983 10.8826C15.3328 10.8826 14.8603 9.53586 14.2164 8.69807C13.1025 7.24879 11.1396 6.42862 9.85036 6.87395ZM25.4877 7.68043C24.6237 8.01316 23.9918 8.50889 23.599 9.16234C23.3888 9.51192 23.3541 9.63701 23.3278 10.1376C23.3019 10.6303 23.3358 10.8659 23.5661 11.7974C24.0028 13.5628 23.9142 14.1591 23.1445 14.6346C22.8356 14.8256 22.7447 14.8468 22.2671 14.8402C21.974 14.8361 21.5401 14.7811 21.3029 14.7179C21.0657 14.6547 20.8446 14.603 20.8116 14.603C20.7785 14.603 20.7515 14.8636 20.7515 15.1821C20.7515 15.5006 20.7297 15.8802 20.703 16.0256L20.6546 16.2901L22.4535 16.2713L24.2525 16.2526L24.4784 15.1294C24.6027 14.5117 24.788 13.6746 24.8901 13.2692C25.1317 12.3111 25.7649 10.1629 25.8432 10.0361C25.8941 9.95381 25.9851 9.96574 26.3988 10.1092C26.671 10.2036 26.8937 10.3087 26.8937 10.3428C26.8937 10.3769 26.7685 10.8044 26.6155 11.293C26.1571 12.7572 25.4195 15.7721 25.4195 16.182C25.4195 16.2743 25.77 16.2877 28.1923 16.2877C29.7173 16.2877 30.965 16.2607 30.965 16.2277C30.965 16.1947 30.7916 16.0036 30.5796 15.8031C30.0112 15.2656 29.4719 15.0394 28.4849 14.9246C27.621 14.8241 27.3313 14.7116 27.0844 14.3804C26.9095 14.1457 26.903 13.7309 27.0691 13.4096C27.1376 13.2772 27.3442 12.9725 27.5282 12.7324C28.0904 11.999 28.1843 11.6659 28.1886 10.3912C28.1926 9.20207 28.1134 8.81522 27.7552 8.27401C27.4551 7.82047 27.0492 7.62912 26.337 7.60525C25.9522 7.59233 25.6461 7.61943 25.4877 7.68043ZM15.2372 11.9671C14.7527 12.1456 14.3749 12.3734 14.0268 12.6967C13.7089 12.9918 13.2756 13.5697 13.2756 13.6984C13.2756 13.7264 13.4809 13.8175 13.7319 13.901C13.9828 13.9845 14.1881 14.0705 14.1881 14.0922C14.1881 14.2825 13.8819 15.0943 13.8101 15.0943C13.7599 15.0943 13.5355 15.0313 13.3117 14.9543L12.9046 14.8143L12.9432 15.3579C12.9645 15.657 13.0156 15.9885 13.0568 16.0946L13.1317 16.2877H16.294H19.4564L19.516 16.1297C19.5488 16.0428 19.5981 15.8384 19.6254 15.6752L19.6752 15.3786L19.2722 15.5173C19.0506 15.5935 18.8331 15.6559 18.7888 15.6559C18.7245 15.6559 18.3999 14.8218 18.3999 14.6564C18.3999 14.6334 18.6538 14.53 18.9641 14.4266C19.6071 14.2125 19.5982 14.2427 19.226 13.5352C18.8388 12.7994 17.8585 12.048 17.0837 11.8933L16.8556 11.8478V12.383V12.9183H16.294H15.7324V12.3918C15.7324 11.8047 15.7161 11.7907 15.2372 11.9671ZM1.90379 14.1386C0.524927 14.7152 0.0140392 15.2145 0.010038 15.9893L0.00849376 16.2877H2.15545H4.3024L4.00624 15.9192C3.84331 15.7165 3.44193 15.1953 3.11419 14.7609C2.77345 14.3093 2.4695 13.9725 2.40415 13.9742C2.34125 13.9758 2.11614 14.0498 1.90379 14.1386ZM16.8556 14.603V15.1645H16.294H15.7324V14.603V14.0414H16.294H16.8556V14.603ZM0.0460487 17.9197C0.391204 21.7335 1.87649 24.9696 4.46799 27.5542C7.01218 30.0915 10.2574 31.6089 13.8612 31.9463C14.9851 32.0514 17.6085 31.9942 18.5531 31.8439C24.6406 30.875 29.5103 26.4376 30.9968 20.5049C31.1678 19.8224 31.3433 18.7446 31.4234 17.8846L31.4676 17.4108H15.7338H0L0.0460487 17.9197ZM4.41822 23.5697C5.58769 25.2416 7.28075 26.7614 9.06381 27.74C9.43058 27.9413 9.74443 28.1167 9.76121 28.1297C9.77798 28.1427 9.68455 28.3748 9.55364 28.6455C9.3778 29.0089 9.28731 29.127 9.20722 29.0974C9.14769 29.0754 8.76365 28.8663 8.35384 28.6327C6.4146 27.5274 4.56247 25.8052 3.31052 23.9432L2.89194 23.3207L3.36303 23.0359C3.79663 22.7737 3.84135 22.7606 3.92397 22.8713C3.97339 22.9373 4.19577 23.2516 4.41822 23.5697ZM11.8015 29.2038V29.7654H11.2399H10.6783V29.2038V28.6422H11.2399H11.8015V29.2038Z" fill="#E07153"/>
<path fill-rule="evenodd" clip-rule="evenodd" d="M0.0460487 17.9198C0.391204 21.7335 1.87649 24.9696 4.46799 27.5542C7.01218 30.0915 10.2574 31.6089 13.8612 31.9463C14.9851 32.0514 17.6085 31.9942 18.5531 31.8439C24.6406 30.875 29.5103 26.4376 30.9968 20.5049C31.1678 19.8224 31.3433 18.7446 31.4234 17.8847L31.4676 17.4108H15.7338H0L0.0460487 17.9198ZM4.41822 23.5697C5.58769 25.2416 7.28075 26.7614 9.06381 27.74C9.43058 27.9413 9.74443 28.1167 9.76121 28.1297C9.77798 28.1427 9.68455 28.3748 9.55364 28.6455C9.3778 29.0089 9.28731 29.127 9.20722 29.0974C9.14769 29.0754 8.76365 28.8663 8.35384 28.6328C6.4146 27.5274 4.56247 25.8052 3.31052 23.9432L2.89194 23.3207L3.36303 23.0359C3.79663 22.7738 3.84135 22.7606 3.92397 22.8713C3.97339 22.9373 4.19577 23.2516 4.41822 23.5697ZM11.8015 29.2038V29.7654H11.2399H10.6783V29.2038V28.6422H11.2399H11.8015V29.2038Z" fill="#1B1B1B"/>
</svg>
