<svg width="32" height="33" viewBox="0 0 32 33" fill="none" xmlns="http://www.w3.org/2000/svg">
<path fill-rule="evenodd" clip-rule="evenodd" d="M10.7717 0.0890068C9.92137 0.276194 9.28731 0.636382 8.69681 1.26757C7.59531 2.44513 7.34094 4.19713 8.05794 5.66838L8.24831 6.059L10.0726 6.05407L11.8967 6.04913L11.3299 5.90488C10.6033 5.71994 10.3161 5.57032 10.0015 5.21288C9.36044 4.48463 9.37812 3.30594 10.0415 2.55038C10.3216 2.23144 10.9005 1.94151 11.3514 1.89438C12.0481 1.82157 12.7349 2.10607 13.1089 2.62238C13.4442 3.08526 13.7992 4.19675 13.9869 5.3715L14.0917 6.02775L15.0192 6.04513L15.9466 6.06244L15.9076 5.59994C15.8235 4.60613 15.3566 2.84538 14.9773 2.09244C14.1954 0.540069 12.4657 -0.283931 10.7717 0.0890068ZM19.553 0.0936943C18.9144 0.230882 18.1614 0.635694 17.7153 1.08194C16.948 1.84919 16.3612 3.37338 16.085 5.31632C16.0343 5.67325 15.9923 5.98638 15.9916 6.01213C15.991 6.03788 16.4118 6.059 16.9268 6.059C17.8482 6.059 17.8636 6.05675 17.8898 5.91838C17.9045 5.84107 17.9601 5.51057 18.0134 5.184C18.2083 3.99069 18.6473 2.79019 19.0282 2.40907C19.5455 1.89151 20.5438 1.73738 21.2459 2.06657C22.4621 2.63669 22.8164 4.22813 21.9521 5.238C21.6698 5.56775 21.3691 5.72194 20.6511 5.90538L20.0842 6.05013L21.8967 6.03894L23.7092 6.02775L23.9114 5.6215C24.2269 4.98744 24.3226 4.51251 24.2889 3.74726C24.2671 3.25251 24.2192 2.97488 24.0952 2.62294C23.4444 0.775444 21.4777 -0.319681 19.553 0.0936943ZM0.421624 8.07588C0.0123111 8.34932 -0.0149389 8.47944 0.00449861 10.0702C0.0234361 11.6273 0.0274986 11.6444 0.452061 11.9614L0.624686 12.0903H15.9905H31.3563L31.5289 11.9614C31.9535 11.6444 31.9576 11.6273 31.9765 10.0702C31.9959 8.47944 31.9687 8.34932 31.5594 8.07588L31.347 7.934H15.9905H0.633999L0.421624 8.07588ZM1.553 21.7122C1.553 27.145 1.57362 29.5258 1.62269 29.7591C1.84781 30.8296 2.71394 31.6952 3.79044 31.9256C5.68342 32.3307 27.7159 32.0267 28.1906 31.9267C29.2512 31.7034 30.1369 30.8178 30.3586 29.7591C30.4073 29.5267 30.428 27.1234 30.428 21.7122V13.9965H15.9905H1.553V21.7122ZM11.7335 17.4378C12.7446 17.6709 13.6286 18.5549 13.8617 19.566C14.2181 21.1119 13.1564 22.6719 11.5621 22.9454C10.3866 23.1469 9.16619 22.5281 8.62825 21.4575C8.05931 20.3254 8.254 19.1076 9.1465 18.215C9.85062 17.5109 10.8059 17.2239 11.7335 17.4378ZM18.9257 17.8246C19.3561 18.0453 19.5637 18.6191 19.3569 19.0163C19.1306 19.4506 14.2648 27.8607 14.1831 27.9587C14.1287 28.0239 13.9633 28.1312 13.8156 28.1974C13.0381 28.5452 12.2599 27.6848 12.6559 26.9153C13.0277 26.1929 17.7258 18.1192 17.8559 17.9793C18.1406 17.6728 18.5221 17.6176 18.9257 17.8246ZM10.677 19.3605C10.4311 19.4892 10.178 19.9173 10.178 20.2044C10.178 20.6442 10.6774 21.1215 11.1377 21.1215C11.4341 21.1215 11.7894 20.8931 11.9341 20.6096C12.3509 19.7926 11.4886 18.9357 10.677 19.3605ZM21.537 23.0852C22.6474 23.3809 23.4362 24.2489 23.6318 25.3907C23.8297 26.5463 23.16 27.8148 22.0867 28.317C20.9542 28.847 19.7565 28.6465 18.8923 27.7822C17.7404 26.6304 17.777 24.844 18.975 23.7443C19.6765 23.1003 20.6516 22.8495 21.537 23.0852ZM20.4416 24.9754C19.9964 25.1949 19.8018 25.8078 20.0381 26.2465C20.1659 26.4836 20.5974 26.7465 20.859 26.7465C21.1629 26.7465 21.5371 26.5062 21.6743 26.223C21.8328 25.8955 21.8342 25.7276 21.6813 25.3908C21.4769 24.9405 20.9028 24.7481 20.4416 24.9754Z" fill="#1B1B1B"/>
<path fill-rule="evenodd" clip-rule="evenodd" d="M0.421624 8.07588C0.0123111 8.34932 -0.0149389 8.47944 0.00449861 10.0702C0.0234361 11.6273 0.0274986 11.6444 0.452061 11.9614L0.624686 12.0903H15.9905H31.3563L31.5289 11.9614C31.9535 11.6444 31.9576 11.6273 31.9765 10.0702C31.9959 8.47944 31.9687 8.34932 31.5594 8.07588L31.347 7.93401H15.9905H0.633999L0.421624 8.07588Z" fill="#E07153"/>
</svg>
