<svg width="32" height="32" viewBox="0 0 32 32" fill="none" xmlns="http://www.w3.org/2000/svg">
<path fill-rule="evenodd" clip-rule="evenodd" d="M4.24166 27.1791H6.9843C7.08639 27.1631 7.1908 27.1714 7.28905 27.2034C7.3873 27.2355 7.47659 27.2902 7.54966 27.3633C7.62272 27.4363 7.67751 27.5257 7.70951 27.6239C7.74152 27.7221 7.74985 27.8266 7.73384 27.9286V30.7309C7.75028 30.8327 7.74213 30.9369 7.71014 31.0349C7.67814 31.133 7.62324 31.2219 7.54992 31.2944C7.47659 31.3669 7.38696 31.4208 7.28858 31.4517C7.1902 31.4826 7.0859 31.4895 6.9843 31.4719H4.24166C4.14007 31.4895 4.03577 31.4826 3.93739 31.4517C3.83901 31.4208 3.74943 31.3669 3.67611 31.2944C3.60278 31.2219 3.54783 31.133 3.51583 31.0349C3.48384 30.9369 3.47569 30.8327 3.49213 30.7309V27.9286C3.47612 27.8266 3.4845 27.7221 3.51651 27.6239C3.54851 27.5257 3.60325 27.4363 3.67631 27.3633C3.74938 27.2902 3.83867 27.2355 3.93692 27.2034C4.03517 27.1714 4.13958 27.1631 4.24166 27.1791ZM0.647333 22.4434H19.9904C18.8099 21.9485 17.8311 21.0694 17.2127 19.9485C16.5943 18.8277 16.3726 17.5309 16.5835 16.2683H27.7498C27.9718 17.5318 27.7549 18.8333 27.1351 19.9566C26.5154 21.0799 25.5301 21.9574 24.3428 22.4434H31.3271C31.8893 22.4434 32 22.5456 32 23.1078V25.663C32 26.2252 31.8893 26.3274 31.3271 26.3274H0.664385C0.102234 26.3274 0 26.2252 0 25.663V23.1078C0 22.5456 0.102234 22.4434 0.664385 22.4434H0.647333ZM24.9902 27.1791H27.7413C27.8427 27.1646 27.9461 27.1741 28.0433 27.2067C28.1404 27.2394 28.2285 27.2944 28.3006 27.3673C28.3726 27.4401 28.4266 27.5289 28.4581 27.6264C28.4897 27.7238 28.498 27.8274 28.4823 27.9286V30.7309C28.4984 30.8319 28.4903 30.9352 28.4587 31.0324C28.4272 31.1297 28.3731 31.2181 28.3008 31.2903C28.2285 31.3626 28.14 31.4168 28.0428 31.4483C27.9456 31.4799 27.8422 31.488 27.7413 31.4719H24.9902C24.8889 31.4876 24.7854 31.4793 24.6879 31.4477C24.5904 31.4162 24.5016 31.3622 24.4288 31.2902C24.3559 31.2181 24.3009 31.13 24.2682 31.0329C24.2356 30.9357 24.2261 30.8323 24.2406 30.7309V27.9286C24.2246 27.8266 24.233 27.7221 24.265 27.6239C24.297 27.5257 24.3517 27.4363 24.4248 27.3633C24.4978 27.2902 24.5871 27.2355 24.6854 27.2034C24.7836 27.1714 24.8881 27.1631 24.9902 27.1791Z" fill="#1B1B1B"/>
<path fill-rule="evenodd" clip-rule="evenodd" d="M0.09375 7.58904L12.2907 6.91615L30.4669 0L31.8808 1.95901L17.4012 6.6947L31.1738 6.11551L30.8672 8.49188L12.4355 8.31301L1.39694 12.3077L0.954019 11.4559L9.70144 8.20228L0.230058 8.31301L0.09375 7.56347V7.58904Z" fill="#E07153"/>
</svg>
