<svg width="51" height="114" viewBox="0 0 51 114" fill="none" xmlns="http://www.w3.org/2000/svg">
<path fill-rule="evenodd" clip-rule="evenodd" d="M25.5297 1.73362C25.3072 1.91082 24.8601 2.86447 24.6897 3.52562C24.5134 4.2093 24.4162 5.13939 24.4646 5.67817C24.5335 6.44384 24.6246 6.85055 24.9682 7.92568C25.7132 10.2564 25.9889 11.5264 26.0404 12.8639C26.0677 13.5739 26.0531 13.8891 25.9758 14.2552C25.7113 15.5075 24.9856 16.2288 23.8762 16.342C22.3627 16.4964 21.2172 15.7877 20.6845 14.367C20.5769 14.08 20.4311 13.7954 20.3604 13.7344C20.1681 13.5683 19.7743 13.5889 19.5908 13.7746C19.1688 14.2017 18.8645 16.791 19.0534 18.3468C19.176 19.3566 19.1197 19.277 19.676 19.2272C20.9049 19.1171 22.279 19.4366 24.843 20.4286C27.6579 21.5176 29.706 22.0727 32.1295 22.4034C33.5259 22.594 37.2946 22.5431 38.0179 22.324C38.2321 22.2591 38.5058 20.7351 38.5078 19.5969C38.5102 18.2668 38.2139 17.0037 37.6041 15.7445C37.0805 14.663 36.803 14.4097 36.3513 14.6009C36.1397 14.6905 36.0726 14.8059 35.8838 15.4056C35.7305 15.8923 35.4021 16.4665 35.022 16.9125C34.4239 17.6143 33.4667 17.8376 32.6611 17.4632C31.9811 17.1471 31.6852 16.746 31.5583 15.9677C31.4605 15.3685 31.548 14.5619 31.9067 12.757C32.5763 9.3872 32.626 8.71985 32.2847 7.6863C32.0909 7.09916 31.8739 6.84941 31.5577 6.84941C31.2785 6.84941 31.1616 6.93855 30.9552 7.30878C30.7203 7.73011 30.339 8.08199 29.8854 8.29598C29.5886 8.43603 29.4462 8.46192 28.971 8.46249C28.4706 8.46312 28.363 8.44147 28.0015 8.26756C26.6904 7.6368 26.24 6.18231 26.3968 3.08637L26.4544 1.95071L26.2575 1.77268C26.0184 1.55648 25.7691 1.54305 25.5297 1.73362ZM10.4741 18.9456C10.0514 19.1716 9.87831 19.7318 10.0911 20.1857C10.2772 20.5827 11.7212 21.8154 12.8466 22.5378C13.606 23.0254 14.6821 23.5873 14.735 23.5238C14.7604 23.4933 14.8321 23.2974 14.8942 23.0885C14.9562 22.8796 15.1046 22.4998 15.2238 22.2444C15.343 21.9891 15.4312 21.7729 15.4197 21.7639C15.4082 21.7549 15.1176 21.5991 14.7739 21.4177C13.8996 20.9561 13.0463 20.361 12.2354 19.6471C11.8539 19.3114 11.4667 18.9869 11.375 18.9262C11.1563 18.7813 10.7658 18.7897 10.4741 18.9456ZM19.4427 20.4654C18.2745 20.6205 17.28 21.2364 16.6602 22.1884C16.007 23.1918 15.7766 24.0412 15.8236 25.2727C15.8725 26.5498 16.1866 27.2936 17.0562 28.1913C18.4175 29.5966 20.6919 30.4358 24.1863 30.8222C25.3917 30.9555 28.1186 30.9727 29.0335 30.8528C33.6937 30.2421 37.6834 28.255 40.8264 24.9791C41.9851 23.7714 42.1274 23.5305 41.9207 23.1259C41.7445 22.7809 41.5606 22.7656 40.5933 23.0159C39.5419 23.2879 38.3368 23.5233 37.4145 23.6369C36.3324 23.7702 33.0058 23.7515 31.9419 23.6064C29.3909 23.2582 27.0035 22.5962 24.038 21.4147C22.0794 20.6344 20.5493 20.3183 19.4427 20.4654ZM18.0512 23.7186C18.1479 23.7692 18.2634 23.8998 18.308 24.0088C18.3768 24.1769 18.3734 24.2578 18.2856 24.5397C17.9707 25.5511 18.3892 26.4155 19.5182 27.0855C20.7582 27.8213 22.9023 28.3345 25.3372 28.4781C25.719 28.5006 26.1079 28.5581 26.2015 28.6059C26.5442 28.7809 26.6024 29.1922 26.3308 29.5189L26.1613 29.7229L25.3145 29.6831C23.058 29.5772 20.8861 29.0965 19.4016 28.3747C18.297 27.8375 17.627 27.2157 17.2188 26.349C17.0354 25.9596 17.0249 25.8965 17.0249 25.1777C17.0249 24.494 17.0406 24.3864 17.1813 24.1015C17.4014 23.6559 17.6893 23.5292 18.0512 23.7186Z" fill="#1B1B1B"/>
<path fill-rule="evenodd" clip-rule="evenodd" d="M10.4741 18.9457C10.0514 19.1717 9.87831 19.7319 10.0911 20.1858C10.2772 20.5829 11.7212 21.8155 12.8466 22.538C13.606 23.0255 14.6821 23.5874 14.735 23.524C14.7604 23.4934 14.8321 23.2976 14.8942 23.0886C14.9562 22.8797 15.1046 22.4999 15.2238 22.2446C15.343 21.9892 15.4312 21.773 15.4197 21.7641C15.4082 21.7551 15.1176 21.5993 14.7739 21.4178C13.8996 20.9562 13.0463 20.3611 12.2354 19.6473C11.8539 19.3115 11.4667 18.9871 11.375 18.9263C11.1563 18.7814 10.7658 18.7899 10.4741 18.9457ZM19.4427 20.4655C18.2745 20.6207 17.28 21.2365 16.6602 22.1885C16.007 23.192 15.7766 24.0413 15.8236 25.2728C15.8725 26.5499 16.1866 27.2938 17.0562 28.1914C18.4175 29.5967 20.6919 30.436 24.1863 30.8224C25.3917 30.9556 28.1186 30.9729 29.0335 30.8529C33.6937 30.2423 37.6834 28.2551 40.8264 24.9793C41.9851 23.7715 42.1274 23.5306 41.9207 23.126C41.7445 22.781 41.5606 22.7657 40.5933 23.016C39.5419 23.2881 38.3368 23.5234 37.4145 23.637C36.3324 23.7703 33.0058 23.7517 31.9419 23.6065C29.3909 23.2583 27.0035 22.5963 24.038 21.4148C22.0794 20.6345 20.5493 20.3184 19.4427 20.4655ZM18.0512 23.7188C18.1479 23.7693 18.2634 23.9 18.308 24.009C18.3768 24.177 18.3734 24.2579 18.2856 24.5398C17.9707 25.5512 18.3892 26.4156 19.5182 27.0856C20.7582 27.8215 22.9023 28.3346 25.3372 28.4782C25.719 28.5007 26.1079 28.5583 26.2015 28.6061C26.5442 28.781 26.6024 29.1923 26.3308 29.519L26.1613 29.723L25.3145 29.6833C23.058 29.5773 20.8861 29.0967 19.4016 28.3748C18.297 27.8376 17.627 27.2158 17.2188 26.3491C17.0354 25.9598 17.0249 25.8966 17.0249 25.1779C17.0249 24.4941 17.0406 24.3865 17.1813 24.1016C17.4014 23.6561 17.6893 23.5293 18.0512 23.7188Z" fill="#E07153"/>
<path d="M11.284 44.98C10.58 45.74 9.632 46.12 8.44 46.12C7.248 46.12 6.3 45.74 5.596 44.98C4.892 44.22 4.54 43.16 4.54 41.8C4.54 40.44 4.892 39.38 5.596 38.62C6.3 37.86 7.248 37.48 8.44 37.48C9.632 37.48 10.58 37.86 11.284 38.62C11.988 39.38 12.34 40.44 12.34 41.8C12.34 43.16 11.988 44.22 11.284 44.98ZM6.688 44.032C7.12 44.544 7.704 44.8 8.44 44.8C9.176 44.8 9.76 44.544 10.192 44.032C10.624 43.512 10.84 42.768 10.84 41.8C10.84 40.832 10.624 40.092 10.192 39.58C9.76 39.06 9.176 38.8 8.44 38.8C7.704 38.8 7.12 39.06 6.688 39.58C6.256 40.092 6.04 40.832 6.04 41.8C6.04 42.768 6.256 43.512 6.688 44.032ZM16.3628 46.12C15.4508 46.12 14.7228 45.828 14.1788 45.244C13.6348 44.66 13.3628 43.852 13.3628 42.82C13.3628 41.788 13.6348 40.98 14.1788 40.396C14.7228 39.812 15.4508 39.52 16.3628 39.52C17.1068 39.52 17.7228 39.72 18.2108 40.12C18.6988 40.512 19.0228 41.012 19.1828 41.62H17.8028C17.4908 41.06 17.0108 40.78 16.3628 40.78C15.8748 40.78 15.4828 40.96 15.1868 41.32C14.8908 41.672 14.7428 42.172 14.7428 42.82C14.7428 43.468 14.8908 43.972 15.1868 44.332C15.4828 44.684 15.8748 44.86 16.3628 44.86C17.0108 44.86 17.4908 44.58 17.8028 44.02H19.1828C19.0228 44.628 18.6988 45.132 18.2108 45.532C17.7228 45.924 17.1068 46.12 16.3628 46.12ZM21.4647 46V40.9H19.4247V39.64H24.8847V40.9H22.8447V46H21.4647ZM25.78 48.4V39.64H26.92L27.1 40.42H27.16C27.352 40.156 27.608 39.94 27.928 39.772C28.256 39.604 28.62 39.52 29.02 39.52C29.852 39.52 30.52 39.808 31.024 40.384C31.528 40.96 31.78 41.772 31.78 42.82C31.78 43.868 31.528 44.68 31.024 45.256C30.52 45.832 29.852 46.12 29.02 46.12C28.612 46.12 28.244 46.036 27.916 45.868C27.596 45.692 27.364 45.496 27.22 45.28H27.16V48.4H25.78ZM27.616 44.344C27.92 44.688 28.308 44.86 28.78 44.86C29.252 44.86 29.64 44.688 29.944 44.344C30.248 43.992 30.4 43.484 30.4 42.82C30.4 42.156 30.248 41.652 29.944 41.308C29.64 40.956 29.252 40.78 28.78 40.78C28.308 40.78 27.92 40.956 27.616 41.308C27.312 41.652 27.16 42.156 27.16 42.82C27.16 43.484 27.312 43.992 27.616 44.344ZM37.9296 45.244C37.3856 45.828 36.6576 46.12 35.7456 46.12C34.8336 46.12 34.1056 45.828 33.5616 45.244C33.0176 44.66 32.7456 43.852 32.7456 42.82C32.7456 41.788 33.0176 40.98 33.5616 40.396C34.1056 39.812 34.8336 39.52 35.7456 39.52C36.6576 39.52 37.3856 39.812 37.9296 40.396C38.4736 40.98 38.7456 41.788 38.7456 42.82C38.7456 43.852 38.4736 44.66 37.9296 45.244ZM34.5816 44.344C34.8856 44.688 35.2736 44.86 35.7456 44.86C36.2176 44.86 36.6056 44.688 36.9096 44.344C37.2136 43.992 37.3656 43.484 37.3656 42.82C37.3656 42.156 37.2136 41.652 36.9096 41.308C36.6056 40.956 36.2176 40.78 35.7456 40.78C35.2736 40.78 34.8856 40.956 34.5816 41.308C34.2776 41.652 34.1256 42.156 34.1256 42.82C34.1256 43.484 34.2776 43.992 34.5816 44.344ZM42.7546 46.12C41.8186 46.12 41.0746 45.832 40.5226 45.256C39.9786 44.672 39.7066 43.86 39.7066 42.82C39.7066 41.788 39.9786 40.98 40.5226 40.396C41.0666 39.812 41.7946 39.52 42.7066 39.52C43.6346 39.52 44.3666 39.82 44.9026 40.42C45.4386 41.02 45.7066 41.76 45.7066 42.64L45.6466 43.24H41.1466C41.1786 43.728 41.3386 44.12 41.6266 44.416C41.9146 44.712 42.2946 44.86 42.7666 44.86C43.3026 44.86 43.7426 44.62 44.0866 44.14H45.5866C45.3946 44.724 45.0586 45.2 44.5786 45.568C44.1066 45.936 43.4986 46.12 42.7546 46.12ZM41.1466 42.16H44.2666C44.2026 41.752 44.0346 41.42 43.7626 41.164C43.4906 40.908 43.1386 40.78 42.7066 40.78C42.2986 40.78 41.9586 40.904 41.6866 41.152C41.4226 41.392 41.2426 41.728 41.1466 42.16Z" fill="#1B1B1B"/>
<path fill-rule="evenodd" clip-rule="evenodd" d="M26.393 56.6351C26.2519 56.6799 25.7822 57.434 25.6195 57.8768C25.5202 58.147 25.493 58.4095 25.5151 58.8821C25.5447 59.5135 25.5506 59.5305 25.9713 60.1776C26.3233 60.7192 26.4042 60.9046 26.4358 61.2427C26.4807 61.724 26.3248 62.2749 25.9762 62.8664C25.632 63.4504 25.6803 63.6918 26.1412 63.6918C26.3922 63.6918 26.5276 63.58 26.8025 63.1458C27.1764 62.5556 27.3503 61.9166 27.3143 61.2659C27.2836 60.7092 27.2641 60.6566 26.8489 60.0053L26.4156 59.3255V58.6973C26.4156 58.0873 26.4254 58.053 26.7531 57.5133C26.9387 57.2077 27.0906 56.932 27.0906 56.9008C27.0906 56.8696 27.0191 56.7875 26.9317 56.7184C26.7772 56.5961 26.6012 56.5689 26.393 56.6351ZM20.357 59.2784C19.7874 59.9194 19.4952 60.8845 19.6343 61.6657C19.6902 61.9794 19.8179 62.2533 20.1247 62.718L20.5394 63.3463L20.5367 63.9431C20.5343 64.4925 20.5098 64.5848 20.2296 65.1053C20.0621 65.4163 19.9082 65.7439 19.8877 65.8334C19.8394 66.0431 20.054 66.2179 20.3284 66.1924C20.5968 66.1676 20.815 65.9056 21.1432 65.2143C21.3812 64.7132 21.4042 64.6023 21.4084 63.9369L21.4129 63.2083L20.9775 62.5234C20.5838 61.904 20.5393 61.7925 20.5129 61.3581C20.4796 60.8099 20.6188 60.3478 20.9781 59.8153C21.197 59.4907 21.2083 59.3629 21.0335 59.1842C20.8928 59.0403 20.5228 59.0919 20.357 59.2784ZM32.0472 59.3649C31.9334 59.5075 31.747 59.8114 31.633 60.0403C31.4511 60.4055 31.4253 60.5494 31.422 61.2164L31.4183 61.9765L31.855 62.6614L32.2918 63.3463L32.2907 63.9431C32.2899 64.4931 32.266 64.5843 31.9867 65.1053C31.5888 65.8477 31.5674 65.9318 31.7385 66.0813C31.9146 66.2353 32.1871 66.24 32.3565 66.0919C32.5457 65.9265 32.9357 65.2183 33.0797 64.7785C33.2388 64.2929 33.2403 63.5574 33.0831 63.1385C33.016 62.9598 32.8105 62.5943 32.6265 62.3261C32.2965 61.8455 32.2918 61.8295 32.2918 61.2103C32.2918 60.5975 32.3003 60.5678 32.6407 60.0037C32.979 59.443 32.9856 59.4206 32.8572 59.2656C32.6408 59.0041 32.3018 59.0457 32.0472 59.3649Z" fill="#1B1B1B"/>
<path fill-rule="evenodd" clip-rule="evenodd" d="M17.7417 80.2698L24.3362 85.6161C24.8381 85.9949 25.4497 86.1999 26.0784 86.1999C26.7072 86.1999 27.3188 85.9949 27.8207 85.6161L34.4152 80.2698C34.6441 80.0831 34.827 79.8462 34.9496 79.5774C35.0723 79.3087 35.1314 79.0153 35.1224 78.72V70.4925C35.1443 70.1973 35.1068 69.9007 35.0121 69.6202C34.9174 69.3397 34.7675 69.0811 34.5711 68.8595C34.6566 69.1999 34.64 69.5579 34.5235 69.889C34.407 70.22 34.1957 70.5095 33.9158 70.7213L27.311 76.0676C26.8233 76.4737 26.2087 76.6961 25.574 76.6961C24.9393 76.6961 24.3247 76.4737 23.8369 76.0676L17.2425 70.7213C16.9061 70.461 16.6678 70.0944 16.5664 69.6812L16.4 70.7213L17.0032 78.7928C17.0084 79.0793 17.0752 79.3614 17.199 79.6198C17.3229 79.8783 17.5008 80.107 17.7209 80.2906L17.7417 80.2698Z" fill="#1B1B1B"/>
<path fill-rule="evenodd" clip-rule="evenodd" d="M27.3943 72.2712L27.7063 72.0216L30.0778 70.0973C30.181 70.022 30.2649 69.9234 30.3228 69.8096C30.3807 69.6957 30.4108 69.5698 30.4108 69.442C30.4108 69.3143 30.3807 69.1884 30.3228 69.0745C30.2649 68.9607 30.181 68.8621 30.0778 68.7868L26.5726 65.968C26.3392 65.7908 26.0543 65.6949 25.7613 65.6949C25.4683 65.6949 25.1833 65.7908 24.9499 65.968L23.9826 66.7481C23.0049 67.549 23.6706 68.5683 24.3259 69.5253C24.5879 69.9215 24.88 70.2971 25.1996 70.6486C25.5844 71.0647 26.843 72.7289 27.3943 72.292V72.2712Z" fill="#E07153"/>
<path fill-rule="evenodd" clip-rule="evenodd" d="M21.216 70.2951L24.7212 73.1347C24.9051 73.2721 25.1209 73.3604 25.3484 73.3913C25.5758 73.4223 25.8075 73.3948 26.0214 73.3115C26.7807 73.0202 25.9173 72.521 25.5429 72.1777C25.1684 71.8345 24.7524 71.4496 24.5028 71.1376C24.1655 70.7692 23.8561 70.3764 23.577 69.9622C22.7137 68.7141 23.0778 67.5075 22.1105 68.298L21.2575 68.9845C21.1543 69.0609 21.0704 69.1605 21.0126 69.2752C20.9548 69.3899 20.9247 69.5166 20.9247 69.645C20.9247 69.7734 20.9548 69.9001 21.0126 70.0148C21.0704 70.1295 21.1543 70.2291 21.2575 70.3055L21.216 70.2951Z" fill="#E07153"/>
<path d="M3.06211 101V92.6H8.10211V93.92H4.56211V101H3.06211ZM12.8652 100.244C12.3212 100.828 11.5932 101.12 10.6812 101.12C9.76917 101.12 9.04117 100.828 8.49717 100.244C7.95317 99.66 7.68117 98.852 7.68117 97.82C7.68117 96.788 7.95317 95.98 8.49717 95.396C9.04117 94.812 9.76917 94.52 10.6812 94.52C11.5932 94.52 12.3212 94.812 12.8652 95.396C13.4092 95.98 13.6812 96.788 13.6812 97.82C13.6812 98.852 13.4092 99.66 12.8652 100.244ZM9.51717 99.344C9.82117 99.688 10.2092 99.86 10.6812 99.86C11.1532 99.86 11.5412 99.688 11.8452 99.344C12.1492 98.992 12.3012 98.484 12.3012 97.82C12.3012 97.156 12.1492 96.652 11.8452 96.308C11.5412 95.956 11.1532 95.78 10.6812 95.78C10.2092 95.78 9.82117 95.956 9.51717 96.308C9.21317 96.652 9.06117 97.156 9.06117 97.82C9.06117 98.484 9.21317 98.992 9.51717 99.344ZM14.9421 103.4V94.64H16.0821L16.2621 95.42H16.3221C16.5141 95.156 16.7701 94.94 17.0901 94.772C17.4181 94.604 17.7821 94.52 18.1821 94.52C19.0141 94.52 19.6821 94.808 20.1861 95.384C20.6901 95.96 20.9421 96.772 20.9421 97.82C20.9421 98.868 20.6901 99.68 20.1861 100.256C19.6821 100.832 19.0141 101.12 18.1821 101.12C17.7741 101.12 17.4061 101.036 17.0781 100.868C16.7581 100.692 16.5261 100.496 16.3821 100.28H16.3221V103.4H14.9421ZM16.7781 99.344C17.0821 99.688 17.4701 99.86 17.9421 99.86C18.4141 99.86 18.8021 99.688 19.1061 99.344C19.4101 98.992 19.5621 98.484 19.5621 97.82C19.5621 97.156 19.4101 96.652 19.1061 96.308C18.8021 95.956 18.4141 95.78 17.9421 95.78C17.4701 95.78 17.0821 95.956 16.7781 96.308C16.4741 96.652 16.3221 97.156 16.3221 97.82C16.3221 98.484 16.4741 98.992 16.7781 99.344ZM21.7277 101L23.3477 98.72C22.9477 98.624 22.6077 98.396 22.3277 98.036C22.0477 97.668 21.9077 97.236 21.9077 96.74C21.9077 96.116 22.1077 95.612 22.5077 95.228C22.9157 94.836 23.4357 94.64 24.0677 94.64H27.0077V101H25.6277V98.84H24.8597L23.2877 101H21.7277ZM24.1877 97.58H25.6277V95.9H24.1877C23.8997 95.9 23.6757 95.98 23.5157 96.14C23.3637 96.292 23.2877 96.492 23.2877 96.74C23.2877 96.996 23.3637 97.2 23.5157 97.352C23.6757 97.504 23.8997 97.58 24.1877 97.58ZM32.291 101V98.9C31.811 99.06 31.351 99.14 30.911 99.14C30.111 99.14 29.499 98.936 29.075 98.528C28.659 98.112 28.451 97.536 28.451 96.8V94.64H29.831V96.8C29.831 97.136 29.939 97.4 30.155 97.592C30.371 97.784 30.683 97.88 31.091 97.88C31.571 97.88 31.971 97.8 32.291 97.64V94.64H33.671V101H32.291ZM35.2273 101V94.64H36.6073V99.008H36.6673L39.2473 94.64H40.8673V101H39.4873V96.62H39.4273L36.8473 101H35.2273ZM42.4226 101V94.64H43.8026V99.008H43.8626L46.4426 94.64H48.0626V101H46.6826V96.62H46.6226L44.0426 101H42.4226ZM46.5146 93.32C46.1786 93.6 45.7546 93.74 45.2426 93.74C44.7306 93.74 44.3066 93.6 43.9706 93.32C43.6346 93.04 43.4386 92.6 43.3826 92H44.4626C44.5186 92.52 44.7786 92.78 45.2426 92.78C45.7066 92.78 45.9666 92.52 46.0226 92H47.1026C47.0466 92.6 46.8506 93.04 46.5146 93.32ZM12.3816 113.4V104.64H13.5216L13.7016 105.42H13.7616C13.9536 105.156 14.2096 104.94 14.5296 104.772C14.8576 104.604 15.2216 104.52 15.6216 104.52C16.4536 104.52 17.1216 104.808 17.6256 105.384C18.1296 105.96 18.3816 106.772 18.3816 107.82C18.3816 108.868 18.1296 109.68 17.6256 110.256C17.1216 110.832 16.4536 111.12 15.6216 111.12C15.2136 111.12 14.8456 111.036 14.5176 110.868C14.1976 110.692 13.9656 110.496 13.8216 110.28H13.7616V113.4H12.3816ZM14.2176 109.344C14.5216 109.688 14.9096 109.86 15.3816 109.86C15.8536 109.86 16.2416 109.688 16.5456 109.344C16.8496 108.992 17.0016 108.484 17.0016 107.82C17.0016 107.156 16.8496 106.652 16.5456 106.308C16.2416 105.956 15.8536 105.78 15.3816 105.78C14.9096 105.78 14.5216 105.956 14.2176 106.308C13.9136 106.652 13.7616 107.156 13.7616 107.82C13.7616 108.484 13.9136 108.992 14.2176 109.344ZM24.5312 110.244C23.9872 110.828 23.2592 111.12 22.3472 111.12C21.4352 111.12 20.7072 110.828 20.1632 110.244C19.6192 109.66 19.3472 108.852 19.3472 107.82C19.3472 106.788 19.6192 105.98 20.1632 105.396C20.7072 104.812 21.4352 104.52 22.3472 104.52C23.2592 104.52 23.9872 104.812 24.5312 105.396C25.0752 105.98 25.3472 106.788 25.3472 107.82C25.3472 108.852 25.0752 109.66 24.5312 110.244ZM21.1832 109.344C21.4872 109.688 21.8752 109.86 22.3472 109.86C22.8192 109.86 23.2072 109.688 23.5112 109.344C23.8152 108.992 23.9672 108.484 23.9672 107.82C23.9672 107.156 23.8152 106.652 23.5112 106.308C23.2072 105.956 22.8192 105.78 22.3472 105.78C21.8752 105.78 21.4872 105.956 21.1832 106.308C20.8792 106.652 20.7272 107.156 20.7272 107.82C20.7272 108.484 20.8792 108.992 21.1832 109.344ZM25.9481 111.12V109.74H26.1281C26.4881 109.74 26.7361 109.552 26.8721 109.176C27.0161 108.792 27.0881 108.12 27.0881 107.16V104.64H31.8281V111H30.4481V105.9H28.4681V107.28C28.4681 107.904 28.4361 108.436 28.3721 108.876C28.3081 109.316 28.1961 109.712 28.0361 110.064C27.8761 110.416 27.6481 110.68 27.3521 110.856C27.0561 111.032 26.6881 111.12 26.2481 111.12H25.9481ZM32.7333 111.12V109.74H32.9133C33.2733 109.74 33.5213 109.552 33.6573 109.176C33.8013 108.792 33.8733 108.12 33.8733 107.16V104.64H38.6133V111H37.2333V105.9H35.2533V107.28C35.2533 107.904 35.2213 108.436 35.1573 108.876C35.0933 109.316 34.9813 109.712 34.8213 110.064C34.6613 110.416 34.4333 110.68 34.1373 110.856C33.8413 111.032 33.4733 111.12 33.0333 111.12H32.7333Z" fill="#1B1B1B"/>
</svg>
