<svg width="32" height="32" viewBox="0 0 32 32" fill="none" xmlns="http://www.w3.org/2000/svg">
<path fill-rule="evenodd" clip-rule="evenodd" d="M15.6113 13.5373C16.2222 13.5373 16.8331 13.5373 17.4246 13.5885C18.6951 12.2647 19.6662 10.6555 20.2658 8.88072C25.3664 -5.84642 36.5082 2.92437 23.9022 11.5519C22.8489 12.1373 21.9797 13.0334 21.4003 14.1309C23.4312 14.463 25.3699 15.2556 27.0828 16.4541C24.6585 17.9074 20.45 18.8694 15.6694 18.8694C10.8888 18.8694 6.61245 17.8971 4.19791 16.4234C4.57491 16.1305 4.97377 15.8704 5.39061 15.6456C5.41413 15.5422 5.45699 15.4447 5.51668 15.359L7.06823 13.1791C7.21264 12.9962 7.40289 12.8599 7.61724 12.7857C7.83158 12.7115 8.06136 12.7024 8.28035 12.7595L11.1894 13.5169C11.2694 13.5351 11.3436 13.5748 11.4048 13.6322C11.4659 13.6896 11.512 13.7627 11.5385 13.8443C12.9053 13.6604 14.2818 13.5682 15.6597 13.568L15.6113 13.5373ZM31.2622 16.7509C31.2622 25.1737 24.2609 32 15.6306 32C7.00031 32 0.00880747 25.1737 0.00880747 16.7509C-0.030424 15.9993 0.0616394 15.2465 0.280351 14.5301C1.33732 11.4598 7.80516 9.07518 15.6306 9.07518C16.6585 9.07518 18.1616 9.16728 19.1313 9.24916L18.2682 10.5694C17.5603 10.5694 16.3288 10.4568 15.621 10.4568C14.9131 10.4568 14.1858 10.4568 13.4876 10.5182C6.89368 10.8764 1.85126 12.8619 1.85126 15.2669C1.85126 17.9176 8.01849 20.077 15.6306 20.077C23.2427 20.077 29.4003 17.9176 29.4003 15.2669C29.4003 13.8648 27.6743 12.5958 24.9203 11.7156L26.4815 10.8867C28.9252 11.9101 30.5737 13.1587 31.0198 14.6222C31.2184 15.3113 31.3036 16.0313 31.2718 16.7509H31.2622ZM21.061 15.5228L19.3155 17.3854C19.1216 17.5901 19.1215 18.1018 19.393 18.0507L23.1458 17.4263C23.4173 17.4263 23.2719 16.976 23.0682 16.7611L21.8367 15.4409C21.7193 15.355 21.5767 15.3161 21.4345 15.3311C21.2924 15.3461 21.16 15.4141 21.061 15.5228ZM8.29006 13.3736L10.4719 13.9467C10.8016 14.0388 10.8209 14.3868 10.6949 14.7245L9.78337 16.9965C9.6894 17.1687 9.53728 17.297 9.35747 17.3559C9.17766 17.4147 8.98343 17.3997 8.81367 17.3138L6.44761 16.1266C6.37737 16.0996 6.31417 16.0555 6.26313 15.9978C6.21208 15.9402 6.17466 15.8706 6.15387 15.7949C6.13309 15.7191 6.12954 15.6392 6.14351 15.5617C6.15749 15.4842 6.1886 15.4112 6.2343 15.3488L7.41731 13.6908C7.52553 13.5528 7.66852 13.4497 7.82977 13.3936C7.99103 13.3375 8.164 13.3305 8.32882 13.3736H8.29006ZM16.1058 15.1032L17.1434 16.7509C17.3276 17.0477 17.1434 17.2114 16.7652 17.3035L14.0209 18.0404C13.8193 18.0792 13.6113 18.0496 13.4266 17.9558C13.2419 17.8621 13.0902 17.7089 12.9931 17.5185L12.4888 15.4716C12.4015 15.1339 12.4888 14.9804 12.867 14.919L15.0876 14.6017C15.2842 14.5908 15.4804 14.6319 15.6582 14.7213C15.836 14.8106 15.9899 14.9454 16.1058 15.1134V15.1032Z" fill="#E07153"/>
<path fill-rule="evenodd" clip-rule="evenodd" d="M31.2622 16.7509C31.2622 25.1737 24.2609 32 15.6306 32C7.00031 32 0.00880747 25.1737 0.00880747 16.7509C-0.030424 15.9993 0.0616394 15.2465 0.280351 14.5301C1.33732 11.4598 7.80516 9.07518 15.6306 9.07518C16.6585 9.07518 18.1616 9.16729 19.1313 9.24916L18.2682 10.5694C17.5603 10.5694 16.3288 10.4568 15.621 10.4568C14.9131 10.4568 14.1858 10.4568 13.4876 10.5182C6.89368 10.8764 1.85126 12.8619 1.85126 15.2669C1.85126 17.9176 8.01849 20.077 15.6306 20.077C23.2427 20.077 29.4003 17.9176 29.4003 15.2669C29.4003 13.8648 27.6743 12.5958 24.9203 11.7156L26.4815 10.8867C28.9252 11.9101 30.5737 13.1587 31.0198 14.6222C31.2184 15.3113 31.3036 16.0313 31.2718 16.7509H31.2622Z" fill="#1B1B1B"/>
</svg>
