<svg width="32" height="25" viewBox="0 0 32 25" fill="none" xmlns="http://www.w3.org/2000/svg">
<path fill-rule="evenodd" clip-rule="evenodd" d="M0.240781 8.98848C0.240781 9.49285 1.02434 10.3665 1.47466 10.3395L7.96828 9.93415C6.81546 8.71828 6.21207 5.07967 6.21207 3.35043L0.36683 6.81792C-0.3717 7.25023 0.231774 8.05181 0.240781 8.98848Z" fill="#E07153"/>
<path fill-rule="evenodd" clip-rule="evenodd" d="M13.2102 0.0180168C9.40947 0.504366 8.24764 1.81931 7.30196 2.89108C7.11228 5.24924 7.60303 7.61231 8.71599 9.69995L9.94987 9.55587L9.78776 5.05262C9.36445 2.21559 12.1294 0.342245 13.2102 0V0.0180168Z" fill="#E07153"/>
<path fill-rule="evenodd" clip-rule="evenodd" d="M21.2977 3.70163C22.5496 4.75539 23.5583 5.98027 24.8102 7.04303C21.6219 8.89836 20.8384 8.9524 19.0731 12.9242L17.6681 11.8795C17.6681 7.8446 17.3979 5.57497 21.2707 3.77368L21.2977 3.70163Z" fill="#E07153"/>
<path fill-rule="evenodd" clip-rule="evenodd" d="M25.576 7.80859C26.5306 8.44935 27.3432 9.2798 27.963 10.2482C28.5828 11.2167 28.9966 12.3023 29.1785 13.4376C27.044 14.3383 23.7746 17.4365 22.7839 16.1396L19.8298 13.987C21.6311 9.62788 24.0178 8.89835 25.5939 7.84459L25.576 7.80859Z" fill="#E07153"/>
<path fill-rule="evenodd" clip-rule="evenodd" d="M22.3878 3.41347L25.7832 6.52969L29.692 5.53899C29.1066 4.89053 28.1879 2.68394 22.3878 3.41347Z" fill="#E07153"/>
<path fill-rule="evenodd" clip-rule="evenodd" d="M30.4484 6.3856L26.7737 7.28625C28.4525 8.68885 29.5634 10.6545 29.899 12.8162C32.601 11.9156 32.6009 8.86238 30.4484 6.3856Z" fill="#E07153"/>
<path fill-rule="evenodd" clip-rule="evenodd" d="M16.3714 0.0810624H16.9117C20.6854 -0.0270151 23.0362 0.837606 24.252 2.43175C23.5241 2.36404 22.7914 2.36404 22.0635 2.43175C20.6416 2.60307 19.3313 3.28811 18.3792 4.35798C17.4272 5.42784 16.8989 6.80876 16.8938 8.24091V20.7419C16.8812 21.0793 16.9458 21.415 17.0829 21.7236L23.6666 22.8944C23.8536 22.9303 24.0436 22.9484 24.234 22.9485C25.6211 22.9312 26.9574 22.4233 28.0058 21.515C29.0543 20.6066 29.7474 19.3564 29.9621 17.9859C29.9816 17.7672 29.9816 17.5472 29.9621 17.3284V14.7256C29.9711 14.5546 29.9711 14.3832 29.9621 14.2122L31.232 13.3116C31.3329 13.7822 31.3842 14.2622 31.3851 14.7436V17.2834C31.3835 17.585 31.3595 17.886 31.3131 18.184C31.1232 19.9282 30.2916 21.5394 28.98 22.7045C27.6683 23.8697 25.9704 24.5056 24.216 24.4886C23.9533 24.4853 23.6913 24.4612 23.4325 24.4165L10.0218 22.0208C8.59654 21.7299 7.33295 20.9132 6.4823 19.7332C5.54641 18.5092 5.03428 17.0138 5.02325 15.4731V11.186L6.41023 11.114V15.4821C6.41988 16.6668 6.81862 17.8155 7.54505 18.7515C8.18659 19.6709 9.15157 20.3142 10.247 20.5528L11.8772 20.841C11.1349 19.8309 10.7371 18.6089 10.7423 17.3554V4.79145C10.7423 1.81932 13.7235 0.0810624 16.3624 0.0810624H16.3714Z" fill="#1B1B1B"/>
</svg>
