<svg width="72" height="72" viewBox="0 0 72 72" fill="none" xmlns="http://www.w3.org/2000/svg">
<circle cx="36" cy="36" r="36" fill="#6DD8B1"/>
<path d="M14.8531 44V30H18.7531L24.0531 39.6H24.1531V30H27.1531V44H23.2531L17.9531 34.4H17.8531V44H14.8531ZM29.9508 44V30H39.4508V32.7H32.9508V35.7H39.0508V38.2H32.9508V41.3H39.6508V44H29.9508ZM44.343 44L40.643 30H43.743L45.943 39.7H46.043L48.443 30H51.643L54.043 39.7H54.143L56.343 30H59.443L55.743 44H52.443L50.043 34.3L47.643 44H44.343Z" fill="white"/>
</svg>
